/* XPM */
static char *_6299_50e0833d9ac0efcb7dcc142778ccfe2d03571212db9d199a21720220ff64502c[] = {
/* columns rows colors chars-per-pixel */
"20 20 2 1 ",
"  c #B2DFDB",
". c white",
/* pixels */
"....................",
".                  .",
".                  .",
".                  .",
".                  .",
".                  .",
".                  .",
".                  .",
".                  .",
".                  .",
".                  .",
".                  .",
".                  .",
".                  .",
".                  .",
".                  .",
".                  .",
".                  .",
".                  .",
"...................."
};
