/* XPM */
static char *_3025_a2def1f5d98ef0c9695548be88e644b2124cf407d50d3d1e049847c5e2e5a2c5[] = {
/* columns rows colors chars-per-pixel */
"20 20 2 1 ",
"  c gray46",
". c white",
/* pixels */
"....................",
".                  .",
".                  .",
".                  .",
".                  .",
".                  .",
".                  .",
".                  .",
".                  .",
".                  .",
".                  .",
".                  .",
".                  .",
".                  .",
".                  .",
".                  .",
".                  .",
".                  .",
".                  .",
"...................."
};
