/* XPM */
static char *_1424_a1a5d532758e23b4996ab75c7156808181a24ab7aacbffcb628997ecdc7236cf[] = {
/* columns rows colors chars-per-pixel */
"64 64 102 2 ",
"   c #201D1B",
".  c #262321",
"X  c #292624",
"o  c #2B2825",
"O  c #2F2C29",
"+  c #312E2B",
"@  c #35322E",
"#  c #38342F",
"$  c #363431",
"%  c #3A3631",
"&  c #3E3935",
"*  c #3E3B38",
"=  c #403B37",
"-  c #423E39",
";  c #46413C",
":  c #49443E",
">  c #4B4640",
",  c #4F4943",
"<  c #524C46",
"1  c #554F48",
"2  c #56504A",
"3  c #5A544D",
"4  c #5D5750",
"5  c #5F5852",
"6  c #625C55",
"7  c #655F58",
"8  c #676057",
"9  c #676059",
"0  c #6A635C",
"q  c #6F685F",
"w  c #676562",
"e  c #6D6761",
"r  c #6E6962",
"t  c #6F6D69",
"y  c #736B63",
"u  c #746F68",
"i  c #787067",
"p  c #75716C",
"a  c #7C746B",
"s  c #7B7771",
"d  c #7D7973",
"f  c #80776D",
"g  c #81786F",
"h  c #837C73",
"j  c #887F74",
"k  c #807D78",
"l  c #8A8177",
"z  c #86807A",
"x  c #8C847B",
"c  c #90867C",
"v  c #92897F",
"b  c #8D8781",
"n  c #8E8881",
"m  c #958D83",
"M  c #998E83",
"N  c #928E88",
"B  c #9C9286",
"V  c #969089",
"C  c #9C948B",
"Z  c #9F988F",
"A  c #9A9691",
"S  c #9C9892",
"D  c #A2968A",
"F  c #A59A8D",
"G  c #A89C8F",
"H  c #A49C92",
"J  c #AA9E91",
"K  c #ADA194",
"L  c #ADA59B",
"P  c #B1A497",
"I  c #B3A699",
"U  c #B6A99C",
"Y  c #B9AC9E",
"T  c #B6ACA2",
"R  c #BBAEA1",
"E  c #B7B0A5",
"W  c #BDB1A4",
"Q  c #BCB4A9",
"!  c #C2B4A6",
"~  c #C3B6A9",
"^  c #C5BAAC",
"/  c #C9BCAE",
"(  c #C6BDB1",
")  c #CABEB1",
"_  c #CDC2B4",
"`  c #CEC5B8",
"'  c #D1C4B6",
"]  c #D1C6B9",
"[  c #D4CABC",
"{  c #DACDBE",
"}  c #D6CDC1",
"|  c #D9CFC1",
" . c #DCD2C4",
".. c #DED5C8",
"X. c #E0D5C6",
"o. c #E1D7C8",
"O. c #E3D9CB",
"+. c #E5DDD0",
"@. c #EADFD0",
"#. c #ECE2D4",
"$. c #F4E9DB",
"%. c #FFF6E8",
/* pixels */
"Q I U L B I T T J L L H H B H 1 - < : < : < < < : : 1 < 2 4 4 @ j J B B H H T L B J ! K T K J j = 3 , 6 1 1 7 6 1 1 1 1 2 < 1 - ",
"/ W U W F ! _ U K U R ~ J P ~ 1 1 5 1 < 1 1 3 1 1 3 2 2 2 2 2 + n P I U ! ! ~ ! ! I Y U ! I ! c # 3 1 3 6 7 6 7 6 1 1 1 1 1 3 : ",
"T U W R P P R K K U _ _ ~ I ! 3 < 4 1 < 3 3 3 1 2 3 1 2 2 4 4 + j ] ! I K T / ! Y Y I D I R ! i = 2 < 2 7 7 6 2 3 1 2 2 , 1 3 , ",
"[ U R K ^ U U J ) T ~ ' ` ) ! < - 3 1 4 7 7 8 3 3 3 1 : , 6 0 # K @.) ) ) } ) ^ U I P R Y J I f & 2 1 4 4 7 7 6 1 1 1 1 < 1 1 > ",
"R U J Y U P U I R W ! Y ^ [ ] 5 - 3 1 7 7 6 7 6 4 2 4 1 1 3 7 + F X.[ ) | ) | ) G P ! P K P R y # 3 2 6 1 4 6 4 3 < < 1 1 1 1 > ",
"U I J U P F _ ! R W W I W R | y < 4 4 6 3 4 6 4 1 1 4 7 8 8 0 + L  .) ) } } O.O.K Y R G G Y ^ y = 3 < 6 4 6 6 4 3 < < 1 2 3 1 > ",
") W U U J Y / ^ ^ Y I Y I ( ..p 3 0 3 4 4 7 4 1 1 2 1 6 0 0 q = H O.) } ] ^ } ) G ! Y P Y Y ^ i & 2 < 2 2 2 6 2 < < 1 3 6 3 < > ",
"~ P D U P P J I G J U R U { ] 6 < 7 6 4 7 3 3 2 2 3 6 3 1 4 7 = b ( } ! ^ ! } ] K K U I J P Y i & 3 < < 1 < 1 2 3 < 2 , < < 3 - ",
"R P J U J ! U F R R P P ! | o.7 < 7 6 6 6 4 6 2 1 4 6 4 2 , 6 & j ) ] ( ] ! ] } ( T ! D P U ! q = 2 2 < 1 3 1 1 1 1 1 < 1 3 1 - ",
"R ^ ! J P U U J ~ _ R L I } ..6 3 7 7 7 3 6 7 7 6 6 7 6 7 4 7 % V ..) | ' } } ) |  .] U ! I I q # 4 2 4 3 4 , 1 < 1 < 1 6 1 1 > ",
"T ~ ! U J J U U W ^ ' ` W ~  .9 3 0 7 3 3 6 7 7 7 7 7 6 7 6 e % m ! ] ( ! | ] ) (  .@.! P G ! f # 2 2 4 3 2 1 < < , 1 3 3 < 1 : ",
"~ Y Y / Y G U U H P U K H K ] 9 2 7 7 6 1 < 4 6 7 6 3 2 6 7 7 + D R J D / ] ] | ' } } ^ ! ^ P i # 2 2 2 2 4 3 < < 1 3 1 1 3 4 - ",
"~ P P R _ U P R P ^ ) P J J J 3 - 7 6 6 1 1 2 7 7 3 < 6 6 6 7 + H ^ J J J ! | ] | ` ' ^ P ~ ! f = 2 < < 3 1 4 1 1 < < < 1 4 3 - ",
"/ Y U ) ) U R R R [ W K P J J 2 1 6 3 6 3 3 7 6 7 6 1 6 2 4 7 + n ~ J T I K ) R R | [ ^ J J ) h # 4 , 2 1 3 3 1 3 < < 1 1 < 6 : ",
"~ U ) @.' { ^ / { ) Y ! ! U / 3 3 7 q r 7 q 0 7 q e 7 6 6 e 7 $ m ! P U ! / ~ ! ^ ) | ] ~ R ! j - 4 4 4 6 4 1 6 4 4 3 1 6 3 3 : ",
"g g m c c v y x l i y a y q l = o # = % = # & = = & = - * $ $ . e f g y j j j i y y f y m i f 3 o @ + + # + + + + # + O @ + # o ",
"% - - = - # - - & @ % @ = % - + d C C N n x N b N S m j k C F 5 + = : % @ & & % & = # & # @ & . 7 j f i h g g h j n g f g b b g ",
"r 7 1 6 7 7 7 0 7 3 3 1 6 8 y = ` $.| ..^ ! ^ X.| ~ [ / ) ) @.f > q 7 1 3 4 4 3 6 4 3 3 3 3 8 @ j ! ! U ! / T ! Y ! ] R R I R F ",
"q 6 < 1 3 4 6 7 7 6 1 < 3 7 7 @ E ..( } R D J U ~ ' ^ U T D T 6 > 6 3 1 1 3 3 1 3 < 2 2 < < 3 @ g P F K ! U P U U G ! Y K K K m ",
"3 < < 1 < < 3 6 6 3 1 3 7 6 4 @ H _ ^ ~ W G J ~ U R ~ J ! ! ! 6 < 3 < < 1 3 2 1 < 3 2 2 1 < 4 O j U F P T I ! K I P U ) ) ) ) F ",
"1 , 1 1 < 1 < 1 < 1 3 6 7 6 3 % D ' / P U R J W U M P ^ / ) ) 8 ; 6 1 < < 1 < < 1 < 3 2 , , 4 @ g R K U / ! R K P D ! | | ..X.D ",
"3 < 1 1 1 4 4 1 3 3 3 6 7 6 3 + W X.) P F ! ~ D Y P P ) ' W ^ q = 3 < 1 1 < 1 2 2 1 1 < < , 2 @ h / ^ T P ! P R R T ^ O.X.@.| c ",
"3 < 1 1 1 < 3 1 1 < < 6 7 4 1 + Z R J P J / [ U P J R ) / ! ! y - 3 < 1 < 1 1 3 3 1 < , 2 3 4 @ h ) ] D K R ! O.( ^ ( ! ^ ) ] F ",
"6 1 < 1 1 < 1 1 1 < < 1 3 3 3 @ m U U / P U { U Y P ) { ^ / { 6 = 6 1 < , < 1 1 1 1 , < 3 6 0 % x ^ ( ! ! ) ! ] | }  .) ! R ) D ",
"1 1 1 1 3 3 3 3 3 3 < < 1 < 1 @ D ! U P Y J R P P I ) X.#./ ~ 7 = 6 3 1 2 3 1 < 1 < , 3 6 6 8 = b W [ ] Q [  .[ ' [ | ! T P P F ",
"1 < 1 1 4 1 < 3 3 3 1 < < 1 1 % L U R U P P J W W G R J ~ [ ' 6 = 6 6 1 1 6 6 1 < 1 3 9 6 7 0 = n ) _ W _ ~ [ o.) T P P D ! ^ D ",
"3 < 1 3 1 < 1 1 3 3 , < 1 < 1 + K R U ^ ^ W Y P I U P J J ~ { 4 = 3 3 1 3 8 3 1 3 3 3 7 4 7 0 = S %.) W _ o.{ _ ) ! P J P ^ ) P ",
"3 1 < < < < < 1 3 , < < 1 1 1 + R ~ Y { ) R Y Y ) / P I P F I 6 = 1 3 7 3 3 1 < < 4 6 6 4 7 y % x ..Q / _ ^ ' ..^ ! J J ^ ) U J ",
"4 3 1 , < 1 1 2 3 , < < 2 3 3 @ I R J ^ U U ! { ' ! J J P J ' i % 4 4 3 3 1 < < 1 6 7 7 3 6 8 # n { { _ [ { ^ o.X.^ F P ! / U M ",
"3 < , < < , < 1 , < 1 2 1 1 3 @ L P U U P J G U / Y Q D ! D ! 7 % 6 7 1 3 7 3 < 6 9 3 4 6 6 8 & N [ _ _ U ) [ } ! ~ J G Y ! G G ",
"4 1 1 3 1 3 3 3 4 4 6 4 5 3 4 @ T ^ ^ ' R ! Y ! ^ ) { ~ R J Y 6 : 6 6 7 8 0 q 8 0 y 8 0 0 0 p = A #. ...| ^ [ R P ! P P ! Y ' P ",
"= @ # # # @ # # # = = @ = = = . v m D M h M v h l M M F x f c 1 + % & - - - - : : ; = ; = = : o d K m H L M B M j j g c g f F j ",
"a y 0 r y 0 e s i q q q q q i = # & @ & & % @ # # & % # % # # . 5 u u s s g u d d d d d d d z 6 @ > * ; ; & @ @ & % $ % & % % + ",
"( ' ) U U Y ~ ^ R I U Y P ! { 2 , 6 3 3 4 3 3 3 3 4 3 4 4 3 4 # C ! T ! ) O.@.@.$.{ $.O.] ..#.m > 0 4 q r q 4 9 q 0 4 6 7 6 q 3 ",
"..| } ~ U P I U G J P U I Y ! 3 = < < 1 , < 2 2 < , , , , < 4 # C R T ( ~ ) ` ` ] ' ` _ W [ } h - 3 > 2 4 5 6 9 6 9 4 4 4 6 9 2 ",
"] ~ ^ G U ) ) K Y ) ) R I U ! : ; 1 < < < 2 < < < < < 1 2 2 4 @ J O.] ! }  .) } } _ ` } _ U O.C % 0 3 3 4 4 5 8 9 4 6 8 6 8 9 < ",
"} ) I L R Q _ ! ! ~ U G P R / 3 : 1 1 < < 6 3 2 , < < 2 3 3 6 @ D O.~ _ ` ] ` [ ..} { ` ..^ o.x ; r 0 4 9 9 3 4 9 6 4 7 8 9 7 > ",
"] ` _ ` ~ ~ ~ ^ ' ' U J I J ! 5 = 2 , < 1 < 2 2 1 < 2 2 1 3 8 @ L ] ] / _ ` ] ' ` { ^ ] #.{ ) y - 9 5 3 9 5 2 3 2 7 3 6 8 7 9 1 ",
"U ] o.] { ^ P ) [ ^ / J P P / 3 - 3 1 3 3 2 3 3 2 < 2 3 1 2 6 # x ~ [ | o._ ' } ] _ ] o.| U U f : 8 3 3 8 5 2 , < 3 4 6 9 6 9 1 ",
"^ _ ] ) | G F J P J U J P K I 6 : 1 1 3 2 2 < , < < < < 4 4 6 # m ' ] ] | ) ! ( [ | ) { ..P Y h : q 5 0 5 2 4 2 < < 6 7 4 7 0 , ",
" .) } _ ..U H ~ ~ P J R Y P ! 7 > 1 < 3 < < < < 1 < < < 2 4 5 % H ] ^ [ R R ) _ (  .~ ! ^ R U a : q 7 6 < 3 6 1 < 2 8 7 7 9 6 : ",
"` ^ ..] [ { W K J J I Y I G R 4 : 3 1 1 1 1 1 3 3 1 < 3 2 1 1 @ H ) W _ ' W  .] Q ../ P J U | x % 3 3 1 1 1 1 1 1 3 4 6 7 9 0 < ",
"_ | [ _ ' ] R G G P P F G U ! 4 : 3 3 1 1 1 1 3 3 3 3 2 3 2 3 # H _ Q W [ ) | _ ` / ~ J [ [ { j % 3 < 3 3 1 < 3 3 < 4 6 6 9 0 1 ",
"..] ` _ ` U I P J Y Y Y J W ' 6 : 2 1 < < 3 1 3 1 3 3 2 3 < 3 % C ! ) J F ~ ] U ^ R U / { ^ ! y & 4 < < 1 1 1 1 6 3 2 3 7 7 9 3 ",
" .` ` | / I J K I U P R Y ' / 3 : 3 < 1 1 1 1 3 2 3 3 3 3 < 3 # H ( [ Q ~ _ ! ! K ~ ' W _ R Y j # 3 < < 1 1 1 > 3 3 2 3 8 0 0 3 ",
"} / ( #.O._ K K P ! D R ' R ) 6 : 3 1 3 < : 1 3 2 3 3 3 1 < 3 + D ^ |  .] W P ] K / [ ~ Q W ~ y % 3 1 3 1 1 < < 3 3 6 6 6 8 0 3 ",
"+...O. . .} W P W ' Y Y ! P ^ 6 < 6 3 3 3 3 6 6 4 4 3 1 3 3 5 + L [ } [ ` R ~ _ _ _ ^ ] ~ D ~ f ; 7 6 6 7 6 4 8 0 0 e 8 0 0 0 4 ",
"T W W E E W K x l D D G l D G < @ = & - # = - = = = & & = = =   S J I V M c J K I H F F B D P 0 # ; - @ = : > > > > > ; ; > < * ",
"; & ; ; - ; % $ $ + & % & % % . 4 5 5 4 6 w 0 9 7 4 5 5 6 6 7 , O # % $ @ @ % % @ & ; @ # # % . > 6 4 4 8 7 w 6 w u p t w 6 t w ",
"e 0 0 0 0 0 0 6 6 3 1 3 4 2 3 $ _ ' ' ) ^ ) ) ! _ ) W R W P ! f ; 9 6 6 3 6 q 8 3 0 4 3 2 2 3 @ j R U R ' W U U ] o.+.' ....| T ",
"5 4 5 6 6 0 7 6 4 3 < 1 3 1 < + ) ^ K T U U R P R ~ K K J Y _ 6 ; 8 9 6 8 8 4 3 3 < , , , < 2 O h U K K J D P R I U U G J ^ ' M ",
"w 5 6 9 8 8 8 0 6 1 < 3 3 1 3 $ L ! U U R ) ~ U ! R I L W I ~ y & 9 6 9 6 2 2 2 2 , , 1 < 1 3 @ j Y J L P U ! U J ~ R P R R } R ",
"0 9 7 6 7 9 7 7 6 1 < < 2 3 3 @ I W P R ! R ~ J J I U P ) J Y 7 & 3 6 4 9 2 1 3 3 < < 1 < < 3 @ j I J W F R ! Y F J U ~ ( Q / ( ",
"8 9 7 9 8 8 3 2 5 , , < 1 3 4 % J U R R U P Y Y J P ! G P G ! 0 & 6 1 4 4 , 1 < < 2 3 2 , , 3 @ b ! U I U U U ~ K U I K I R  .H ",
"3 9 8 6 7 7 3 , < < < < < 1 3 % D Y P U ! U U Y J U J P J Y ! y & 6 < 3 3 1 2 , , 2 2 < 1 2 3 + x ^ R I ' ~ F K J ^ ~ ! U ^ [ B ",
"0 9 6 < 3 3 2 < < < , < 1 3 3 + D { ^ G ! J J P P U U U D ! ! 4 = 3 3 3 3 3 , < < 2 2 1 3 3 4 # j R U I Q ` D J P W +._ ' ) ..U ",
"w 4 3 3 5 3 1 1 , < < < < 4 4 $ D ! ^ I R J Y ' ! R Y G I Y ^ q = 3 4 4 6 4 1 < 2 , 2 3 , 3 6 # a U I _ ^ ] U U Y U | _ O.[ O.Q ",
"3 1 < 4 6 < , < 1 < 3 1 , < 3 $ L ^ K J G R W ! P Y P K G R ^ 0 & 3 3 7 8 6 6 1 < 2 < 2 < 2 3 + n ! P R W U K G K ~ U ~ U / [ M ",
"3 < , 3 1 < , 3 3 , < < < < < + W / P U G U R I J W Y R ! P P 7 & 3 4 7 7 8 6 3 3 3 2 < 3 2 3 @ n / J Y W / U G J J Y R Y K R B ",
"3 1 , 1 < 1 3 3 3 4 3 4 3 < 1 $ K Y Y Y U I J Y W I J P ! Y ~ 0 ; 3 3 8 3 8 7 6 3 < < < < 3 3 @ h / U / } W K G F D U Y _ I K D ",
"3 1 < < 1 3 1 1 1 7 5 , 1 < 1 @ D K Y Y I P G Y ^ K F J U U ! 7 = 3 4 9 7 7 3 4 9 3 < < , 2 5 @ z / U U W R Y W Y L I / ` R K c ",
"3 3 3 1 , 1 1 < 1 1 4 , 1 3 1 O D ! ! P Y Y R / D J P F J J Y 6 & 2 1 4 7 3 < 4 4 2 , 2 3 < 3 @ h Y P D W ^ W I [ _ / / U Y Y x ",
"3 4 1 < 1 3 1 1 , < , 3 1 4 3 + G P R ! I Y ! R J R G F P J ~ y & 3 1 2 < 1 < 3 3 2 , 3 3 < 3 @ a W W W { !  .) R W _ ..W G U v ",
"3 3 1 1 1 4 3 3 1 1 3 1 < 1 5 O D P P I P P Y J P Y U I J U ~ 8 = 6 1 < 2 < 1 3 3 2 2 2 < < 2 @ x / Y K K U _ ^ ! ` O.Y W G Y D "
};
