/* XPM */
static char *_3829_fcd2eb7786ee23d3be24369151b50854eaeafbc4979f71daa60ad630fe571b4d[] = {
/* columns rows colors chars-per-pixel */
"64 64 160 2 ",
"   c #647464",
".  c #687766",
"X  c #677966",
"o  c #687867",
"O  c #6C7C6A",
"+  c #747565",
"@  c #7A7465",
"#  c #76766B",
"$  c #7B7669",
"%  c #757B6C",
"&  c #7B7C6D",
"*  c #777C70",
"=  c #7D7E71",
"-  c #817366",
";  c #8F7266",
":  c #83766A",
">  c #8A7469",
",  c #837B6D",
"<  c #8B7B6C",
"1  c #96766B",
"2  c #937B6D",
"3  c #9B7A6F",
"4  c #837E71",
"5  c #8A7E72",
"6  c #927D71",
"7  c #9C7D72",
"8  c #5E8774",
"9  c #65826E",
"0  c #6F816E",
"q  c #74816E",
"w  c #7B806F",
"e  c #648572",
"r  c #6A8373",
"t  c #648A76",
"y  c #6C8B76",
"u  c #658D7A",
"i  c #6B8D7C",
"p  c #758575",
"a  c #7C8373",
"s  c #748A77",
"d  c #7B8975",
"f  c #758679",
"g  c #7C8579",
"h  c #738B7D",
"j  c #7C8B7C",
"k  c #66917C",
"l  c #6B917E",
"z  c #72927E",
"x  c #7C917F",
"c  c #838274",
"v  c #8B8375",
"b  c #838678",
"n  c #8B8679",
"m  c #848B7D",
"M  c #8B8B7D",
"N  c #928376",
"B  c #9E8076",
"V  c #93867A",
"C  c #9B867B",
"Z  c #938B7E",
"A  c #9C897D",
"S  c #A28578",
"D  c #A98379",
"F  c #A5897F",
"G  c #6F8D82",
"H  c #738E81",
"J  c #7D8E81",
"K  c #669283",
"L  c #6D9481",
"P  c #6D9984",
"I  c #6F9C89",
"U  c #749484",
"Y  c #7A9485",
"T  c #749986",
"R  c #7A9886",
"E  c #759688",
"W  c #7A9789",
"Q  c #759C8A",
"!  c #7B9C8C",
"~  c #749E90",
"^  c #7D9E90",
"/  c #6EA28C",
"(  c #75A18D",
")  c #7BA18E",
"_  c #76A291",
"`  c #7DA292",
"'  c #7DA799",
"]  c #7EA89A",
"[  c #858E81",
"{  c #8B8E81",
"}  c #938D81",
"|  c #9C8C81",
" . c #839284",
".. c #8C9284",
"X. c #839589",
"o. c #8C9689",
"O. c #829C8E",
"+. c #8A9B8C",
"@. c #939385",
"#. c #9A9185",
"$. c #949689",
"%. c #9B958A",
"&. c #93998B",
"*. c #999A8D",
"=. c #839F91",
"-. c #8B9E92",
";. c #939E91",
":. c #9A9D91",
">. c #A38E83",
",. c #A98D83",
"<. c #A39186",
"1. c #A4938A",
"2. c #A89088",
"3. c #A2988E",
"4. c #AA988E",
"5. c #A29E92",
"6. c #AA9C93",
"7. c #81A08F",
"8. c #83A394",
"9. c #8BA395",
"0. c #86A897",
"q. c #89A897",
"w. c #85A699",
"e. c #8AA69A",
"r. c #85A99A",
"t. c #8BAA9C",
"y. c #92A395",
"u. c #9AA295",
"i. c #92A699",
"p. c #9BA79A",
"a. c #92AB9D",
"s. c #9BAA9C",
"d. c #AAA197",
"f. c #A1A79B",
"g. c #A8A89E",
"h. c #86ACA1",
"j. c #8EADA1",
"k. c #93AEA1",
"l. c #98A9A0",
"z. c #94B2A4",
"x. c #9AB2A5",
"c. c #96B5A9",
"v. c #9CB5A9",
"b. c #9EB9AD",
"n. c #A6ABA0",
"m. c #A1B6AB",
"M. c #AAB2A9",
"N. c #A2BAAF",
"B. c #B4B3AC",
"V. c #A4BCB2",
"C. c #AABDB4",
"Z. c #B3B7B0",
"A. c #B3BDB4",
"S. c #B9BAB3",
"D. c #AAC0B7",
"F. c #ADC6BE",
"G. c #B4C2BA",
"H. c #B5CBC5",
"J. c #BBCBC5",
"K. c #B8CEC8",
/* pixels */
"j.e.8.8.` 8.w.8.8.^ $.` ) ` Q Q ( ! ) ) z ..w.e.t.8.O.^ ^ j.E O ;.h.w.w.^ ' w.w.8._ $.k.w.=.] ^ w.w.8.8.^ $.^ Q ` Q Q ( ! ) ! Q ",
"w.8.=.=.8.8.8.8.w.^ &.~ Q ! Q ! ! ! ! ) h [ r.v.m.e.e.9.8.^ I H ;.w.w.^ =.=.=.=.8.` $.i.w.=.=.=.8.8.' w.=.$.Q ! Q Q ! ! ! ) Q U ",
"w.w.w.8.8.8.8.8.=.O.&.Q ( T Q T R ! ! Q s [ h.w.t.w.w.w.=.^ I f -.h.=.=.=.w.w.=.O.^ Z 9.h.=.w.8.8.8.=.=.! $.Q ! Q T Q T Q ) Q z ",
"h.w.=.=.O.8.! 8.^ W $.! Q P P U T T T L y &.r.` ` ^ ^ ! ~ ! I j ;.w.=.=.=.=.^ =.8.! @.e.=.=.=.=.=.` =.=.! o.Q Q P P U T T U U l ",
"w.9.=.=.! =.O.O.O.R %.) Q T L U U T T T h &.0.8.! 7.8.^ ! ! I H y.w.=.=.^ =.=.=.O.! { i.w.=.=.=.=.! =.O.W %.) Q Q U U U T T R l ",
"` =.! ^ O.W W W W Y $.Q U U l U T T T T h &.0.) ` ! ! =.! ! T H -.8.! ! ^ W W W W E M -.=.! W ! ! W W W Y @.Q E z l U Q T T U l ",
"^ W W W W Y W W W Y @.Q L z U U T T T T z $.t.8.8.) ! ! W W T J o.^ W W Y U E Y W U n =.! W W W W Y Y W Y @.T L l z U P T U U L ",
"! E E H H U U H Y Y V L l l L l l P l l y $.t.O.O.O.! O.! W ! J [ Q U H Y Y Y E Y E 4 Y E U H H U Y U U H n L l l l z z P P l l ",
"E H H H U H U U H H b G u u i k k l l P y $.t.9.=.O.O.! O.X.)  .j G H E Y U Y U H H 5 W U H U U U U Y U H a i i k l k l l l l l ",
"G G H H H h H h H h 4 t e 8 t t y y z U y %.e.o.+.X.X. .X. .Y m f i f G h h i h H H , f i s G h H f H H j 4 u t t t t y y z z P ",
"- - < , 4 , : 4 5 # 7 } n v 4 c n N N n N S , $ 4 & $ c n Z n < 7 V V n n n v c b 4 7 ,.>.Z V V n n v c v 1 @ $ & & c c = v v % ",
"8.9.v.e.=.=.^ w.=.u { k.9.8.w.8.8.8.8.' +.&.Q ) ) ! ) ) ) ` ) x S.V.l.j.q.8.0.) ^ =.5.A.v.z.t.q.9.=.^ ^ -.} 8.e.x.9.X.8.^ w.! u ",
"h.j.b.k.t.j.e.` Q G { e.w.=.=.8.8.8.8.8.O.&.Q Q Q Q ! Q ! ! Q x C.C.x.j.t.r.0.0.8.=.5.G.N.x.t.r.w.8.8.` 9.@.0.z.v.k.e.t.w.^ ! K ",
"] w.8.w.8.8.8.^ ~ K { w.=.w.8.8.O.8.8.` X.+.I Q T T T T R Q U s p.c.z.t.0.8.) ) ! ! $.k.x.t.0.0.8.` ) ) R n r.w.=.w.w.8.=.^ ! K ",
"r.8.^ ^ ^ ^ ^ ! Q K @.t.=.=.=.=.=.8.8.` X.&.( Q P z T T T T z j s.z.t.0.0.8.) ) ) T $.x.k.t.q.0.) ) ) ) Y } r.8.^ ` ^ ^ ~ ! Q K ",
"0.8.^ ^ =.8.^ ! ! L M e.w.=.! ^ =.! ! ! [ &.Q T P U U E U Q P j s.j.t.9.8.) ) ( Q T @.x.t.q.q.0.) ) ) Q R @.r.8.! ^ 8.=.! ! E K ",
"0.8.) 8.! ) ^ W Q i { 8.! ! ! ! W W W W J &.I U z P U T Q T P x s.t.8.8.) ) ( ) ) Q $.a.t.8.8.` ) ) R ) R @.0.7.` ) ! 8.! ! T K ",
"t.8.7.=.! O.! W E T n ^ ! W W U Y Y Y W J @.L L l z U P T z U x y.t.8.8.) ) Q ) R Q $.a.w.8.` ! ) ( ( ( T } t.8.8.7.) ! W W W L ",
"t.9.8.O.O.W O.W W E c Y H H H H U Y H E j b K i l z l z z z k s -.t.8.` ! Q Q Q ) T @.e.e.8.8.! ( T T ) T Z t.8.7.O.W X.! W W Q ",
"t.e.9.=.=.=.8.=.=.W a E H E E U U U E U J a u u k k k l k k / s -.] ` ` ( ( Q ( / / } e.' _ _ Q ( ( ( ( T Z a.9.9.=.8.O.=.=.O.! ",
"&. .m m b g m [ m [ , f p f p s f f f s = = e r 9 t y y s d y w M E Y j H h s s d s N  .H  .H h d s s d d A &. .m m j g [ [ [ [ ",
"M , % w % w a b M g C 4.3.#.} @.} m b m v 2.5.*.@...Z M M M b v > 4 V v [ v 4 v V + 2 1.#.V c n v v V V V F n & & q & w = b b b ",
"( _ _ _ ( ) ` ` _ T u.K.c.z.t.r.0.' ` 0.+.B.F.c.z.0.0.' ' ) 0.&.-.h.b.c.=.w.8.] ] K m z.h.8.] 8.0.r.] ] ` &._ ( _ _ ) ) ` ' ! Q ",
"Q Q Q ! ) T ! ! W U &.C.m.k.t.t.8.8.7.` o.n.C.v.k.0.0.0.0.7.' &.-.r.x.t.j.j.w.8.^ L b 9.w.=.=.=.7.8.7.8.! %.( Q ! ! Q Q ! W Q T ",
"I Q T P P T Q T T l ..z.z.t.t.8.8.) ) )  .u.z.k.t.t.0.` ) ( ) Z 9.r.8.8.` 8.8.^ ~ P b e.8.w.8.8.) =.=.=.! o.Q Q P P U T Q T T l ",
"( ! P P U T T T T l &.x.t.t.0.0.) ) ( ) x u.z.t.q.0.0.) ) ) z M y.w.` ) 8.! ^ ! ~ P c i.8.=.=.O.=.7.8.9.W $.) Q P P U T T T U l ",
"Q T T L U T U U T l &.k.t.q.8.` ) ( Q ) x f.a.q.q.0.) ) x ) ( M y.0.` ! 8.=.^ ! ! L b 9.8.=.O.O.! W ! W Y #.Q T U U T U T T U k ",
"T U U L z T P ( T l &.j.9.8.` ` ) ) ) T R s.t.0.7.) ) ( ( ( ( M ;.8.) 8.! ^ ! Q Q L b =.! W ! ! W W W W Y $.Q U z l U U T T T L ",
"P U L l U U T z z l ..t.q.8.` ) R ( ) ( x *.h.q.8.) ) ( Q Q / m &.w.=.=.O.! W ! W ! = X.W W W U Y E Y U Y Z T L z z U z U U U P ",
"i u u l l l z l l l &.t.8.8.! T z ( R ) x *.r.0.) ) Q Q ! Q ( m &.w.=.=.O.W O.O.W W * J E H H H U Y Y Y H c i i k l k l l l l l ",
"k u k u k k k k z l ..] _ ` _ ( ( / / / z :.' ( _ _ ( ( ( ( / m u.t.9.w.=.=.O.=.W ^ = H L G G E U U U U H a k k k k y k k l P P ",
"  X X O 0 q d m x d N m M m d a w b c w n <.m M b a a a c c w N | n 4 4 = = b M } [ > = * = * * % * * % & $   X X O 0 q d d d p ",
"j j d x x m  .X.X.x <.d.d.*.$.....m  .m } 2.;.$.{ [ { { } { o.| } f d f p d x  . . .Z d.*.*.+.o.M m x x M N g m ....j [ g o.[ O ",
"( ( ) ( ( ) ) ) ) z f.K.c.c.r.r.r.] 8.8.+.:.h.8.8.] 8.] w.] ' -.8.( _ _ ) ) ) ) ) T +.J.D.c.j.r.r.] 0.0.9.@.h.z.D.t.w.r.w.` ~ K ",
"Q Q ( Q ( Q ! ! ) l $.N.v.k.0.0.0.` ` ` [ { r.w.8.8.8.8.8.8.^ o.+.I Q T Q R Q ! ) T m m.v.z.t.t.0.7.) ) 7.M r.t.t.t.e.e.8.8.~ G ",
"Q Q P l z R T T T y o.c.k.t.t.8.0.) Q ^ j v 0.8.8.=.=.8.=.! ! o.+.Q T P L T Q T T k m x.j.t.0.0.7.) ) ) ! M r.) ` 8.^ ! ^ Q E K ",
") Q Q L U T T T Q l &.k.t.e.q.0.) ) ( ) s M t.8.=.O.=.=.=.=.^ o.7.( Q U U U T T T L  .x.a.e.0.0.` ) ) ) z Z t.0.` ` 8.=.^ ! Q K ",
"Q T U U P U T T T l &.k.e.e.0.) ) ( ) T x M 0.=.! O.! W W W W ..+.T U U U T T T T l ..k.t.t.8.) ) ( z ) x $.0.) ! ! ! =.! ! E K ",
"T U l l z T T T P z &.a.w.8.` ` ) ( ( ) x m ` W W ! W R W W E [ +.z z l z T U Q U L  .s.0.8.8.! ) ( ) ( ) Z t.7.8.7.=.! ! Q E G ",
"P U l L U z P U P z ..t.w.8.) ! ) ) ( z J = ^ Y W H U U W H H [  .l l l P z U l U L  .t.t.8.` ) ) ( ( R z Z j.0.8.O.! W ! E ! L ",
"u i l l k l l l l i ..t.w.^ Q Q z ( R ) s $ T z E H E U U H E [ s u u l k k l l l k m a.0.) ) Q T ) ( ) z Z a.9.O.O.! O.O.W O.W ",
"k t 8 u t k k l T L M _ ~ _ _ Q z / / ( z % L i G H G H H E G g s k 8 t t y k l z l m ` ( ) ( / / P P T U @.t.7.-.O.O.X.=.X.X.! ",
"+ + + % a w w c c * 6 } N v , 4 c < < ; 5 7 v 4 < : = 4 , 4 4 7 < O . % % w a m M d N A Z V n n v c v : : S <.A } } V n n v 4 : ",
"X.+.p.+.Y +.Y +.+.r } l.9.-.-.+.7.+.+.7.o.5.l.-.-.O.=.-.+.-.=.$...x  .! R R O.O.7.x &.B.s.s.y.9.9.X.O.! o.4.M.s.u.9.-.-.O.O.W +.",
"h.j.V.k.e.t.w.' ~ G ..r.w.8.` 8.w.8.8.] X.&.h.=.8.8.` 8.w.8.' +.9./ ( ( ) ! ! ! ) T ;.F.D.x.j.r.0.0.7.` 7.g.F.N.c.t.r.0.8.8.7.9.",
"] t.w.w.e.e.8.^ Q K M e.=.8.8.8.` 8.8.` X.n h.=.8.8.8.8.8.=.^ ..+.T ( T T T T Q ) z M x.x.k.0.0.7.7.` ) X.*.b.x.j.t.0.7.8.) ) O.",
"r.8.` 8.=.! ! ! ! G ..t.8.=.8.=.=.8.=.8.J M h.=.8.) =.) =.=.^ o.+.Q T k U T T T T l  .x.z.t.0.0.7.) ) ) R &.c.k.t.0.0.) ) ) ) R ",
"0.8.` ! 8.8.` ! ~ L { t.w.=.O.! O.! O.^ J m j.=.=.O.O.=.=.! ^ ..7.Q Q U T U T T T z o.x.t.q.q.0.) ( ( ) z *.z.t.q.0.7.) ) Q ( x ",
"0.8.` 8.` ! O.! Q L { 8.O.! O.! W W W W J [ w.! ! O.W W W W E [ +.T U U P T U Q T l ..z.e.8.8.) ) ( x ) T :.z.t.0.8.) ) ) ) Q T ",
"0.8.7.7.O.) ! W W L [ ^ W W W Y E W W W J b ^ W ! W Y W E W E { +.P l l z z T T T L &.a.0.8.8.) ) ) ) ( R *.t.8.8.) ) ) Q Q ) R ",
"t.9.7.O.O.W ! ! W E v E E H U Y H Y H E f = E E U H H Y E Y H [ x l i l L z l z l k ..a.t.8.) ) ( ) ( z T @.t.e.8.! ) Q ( ( T Q ",
"t.9.=.8.O.O.O.X.! W b T H U U H E Y H E j * E H H H E U H H E [ d u k l k l l l l L { e.w.` ) ( ( ( ( ) T @.t.' ` ) Q Q R ( ) T ",
"y.+.X.X.X. .X.X.X.X.4 G i G f H H H G H * # i h H H h i H f H = p 8 t 8 e u y l z l M W ( Q Q U z z z z z A Q W W Q T P z z z l ",
"n : @ + @ # $ c v 5 ; - : 4 4 b 4 * 5 4 # 3 | n - 4 4 5 5 5 v C >.@.Z n } M M v m & 7 F A A v N v v c c v D } A v , , < v 2 < N ",
"( ) ` ) ) ) ) ) ^ E { w.i.v.=.=.=.^ =.^ r :.j.w.w.8.w.w.w.w.8.o.S.V.x.a.t.8.0.) ) 7.d.G.v.k.t.q.0.0.) 7.7.<.j.0.8.8.8.w.8.8.0.) ",
"Q Q Q Q ! ! ! ! ! L { h.k.v.e.j.e.h.=.I G { w.9.=.=.^ w.w.8.` +.G.D.x.j.0.0.8.0.7.7.3.F.D.x.j.0.0.7.7.) 7.A 0.9.=.=.8.8.8.8.0.W ",
"Q Q T ( U T Q T Q i M r.r.8.8.w.w.8.^ ~ u M 0.8.8.0.8.8.=.=.^ X.p.z.k.t.0.0.) ) ) ) Z k.x.k.0.0.7.) ) ) ! c e.8.w.8.8.8.8.! =.W ",
"( ( P k T T R T T l ..t.8.` ) ` ! ^ Q Q i M t.8.=.7.O.) =.=.^ o.s.z.t.t.0.0.) ) ) ( &.x.k.0.0.0.7.) ) ) Y , t.8.8.^ =.=.O.8.=.! ",
"Q Q Q U U U U T W l @.t.8.) 7.8.^ ^ ! Q i M t.8.O.! =.O.! O.! [ p.t.t.0.7.) ) ( x z @.x.t.q.q.0.` ) T ) R v e.8.=.O.! ! O.! ! W ",
"T T z l z T U Q T l ..t.7.! 8.! ^ ^ E ! f m ' W ! ! W W W W E [ s.r.0.8.7.) ( ) ) ( &.k.0.q.7.` ) ( ( ) R n 8.O.W ! O.W W W W Y ",
"T L l l T U U / T L { t.8.7.8.! X.W W E h g ^ W W Y U W U Y E [ p.r.8.8.) ) Q ( Q T &.a.9.8.) ) ) ) z ) W c ! W W W Y Y Y E Y H ",
"l l i L l l z l l i } j.8.7.O.O.W ^ ^ ! H & ~ H H U H U U Y U b -.t.8.! ) ) T ( Q Q @.e.t.8.) Q ( ( ) ( R $ Q U U H H U E Y Y U ",
"u t u u y k l l l l @.e.-.=.O.X.O.O.X.=.J # E H H H H U H Y H g -.8.) ` ( ( T ( ! Q { 9.` ` ) ( ( / z ) T # G H H U H U H U H H ",
"y t t u u y y z T l | p.-.-.+.O.X.O.+.X.j # H i H H H H H H H b +.~ T ( U P U z z G M ! ! Q ( ( l z z z U : G G H H H h H H H f "
};
