/* XPM */
static char *_83_98f8afd316113e1295805d0783b683aff0af3d85e3610ae9b17c164d630be9ad[] = {
/* columns rows colors chars-per-pixel */
"64 64 167 2 ",
"   c #09130A",
".  c #141E0B",
"X  c #1C2A0D",
"o  c #212C0C",
"O  c #25340C",
"+  c #2C3E0C",
"@  c #232D14",
"#  c #212C1B",
"$  c #263314",
"%  c #2A3513",
"&  c #2C3C12",
"*  c #263219",
"=  c #2A341C",
"-  c #2D3B1B",
";  c #303C16",
":  c #303E1B",
">  c #2F3C20",
",  c #33440E",
"<  c #374B0E",
"1  c #3A4A0F",
"2  c #3D500C",
"3  c #334313",
"4  c #374A12",
"5  c #3B4C15",
"6  c #35431A",
"7  c #38441C",
"8  c #3C4C1B",
"9  c #3F5215",
"0  c #3E511B",
"q  c #384527",
"w  c #3D4C20",
"e  c #3F5022",
"r  c #41550D",
"t  c #44590E",
"y  c #4A5E0F",
"u  c #414F1A",
"i  c #435515",
"p  c #455A15",
"a  c #495C16",
"s  c #43541B",
"d  c #48571C",
"f  c #46591B",
"g  c #4B5D1B",
"h  c #4B610E",
"j  c #50670F",
"k  c #516A0C",
"l  c #4D6215",
"z  c #4F6910",
"x  c #4E621B",
"c  c #516615",
"v  c #546B15",
"b  c #596F16",
"n  c #51661C",
"m  c #556B1C",
"M  c #596E1C",
"N  c #577015",
"B  c #5B7315",
"V  c #5F7914",
"C  c #56701D",
"Z  c #5C731C",
"A  c #5F781A",
"S  c #607516",
"D  c #637C16",
"F  c #687E12",
"G  c #61761D",
"H  c #637B1C",
"J  c #697E1D",
"K  c #424E21",
"L  c #445323",
"P  c #465821",
"I  c #4B5D23",
"U  c #4B5E29",
"Y  c #505E21",
"T  c #505F28",
"R  c #4E6222",
"E  c #4E6821",
"W  c #526523",
"Q  c #556A23",
"!  c #5A6D23",
"~  c #52642A",
"^  c #59672A",
"/  c #56692A",
"(  c #5A6C2B",
")  c #5D7323",
"_  c #5F7825",
"`  c #5E732A",
"'  c #576A32",
"]  c #5B6A31",
"[  c #5E7330",
"{  c #617623",
"}  c #647B23",
"|  c #697E24",
" . c #62762B",
".. c #657B2A",
"X. c #697E2B",
"o. c #637633",
"O. c #667A32",
"+. c #697D32",
"@. c #687839",
"#. c #6A8416",
"$. c #6E8914",
"%. c #67811C",
"&. c #6B841D",
"*. c #6E891D",
"=. c #728917",
"-. c #71871E",
";. c #728B1D",
":. c #75911C",
">. c #79941D",
",. c #678024",
"<. c #6B8324",
"1. c #6F8823",
"2. c #6C832B",
"3. c #6F882B",
"4. c #718624",
"5. c #738B24",
"6. c #788F24",
"7. c #70862C",
"8. c #748B2B",
"9. c #798E2B",
"0. c #769124",
"q. c #7A9424",
"w. c #7E9925",
"e. c #77902B",
"r. c #7B942B",
"t. c #7E992B",
"y. c #6D8331",
"u. c #718633",
"i. c #748C32",
"p. c #788F36",
"a. c #728738",
"s. c #758B3A",
"d. c #7B8E39",
"f. c #779032",
"g. c #7C9433",
"h. c #7F9933",
"j. c #7D953B",
"k. c #809723",
"l. c #829C26",
"z. c #899E25",
"x. c #80972E",
"c. c #829B2C",
"v. c #819633",
"b. c #839B34",
"n. c #899E34",
"m. c #809538",
"M. c #839B3B",
"N. c #899F3A",
"B. c #85A123",
"V. c #88A227",
"C. c #8CA924",
"Z. c #85A12B",
"A. c #89A32D",
"S. c #8DA92C",
"D. c #91AB2E",
"F. c #86A132",
"G. c #8BA433",
"H. c #8EA933",
"J. c #8BA43B",
"K. c #8FA93A",
"L. c #91AB33",
"P. c #92AA3A",
"I. c #95B134",
"U. c #97B038",
"Y. c #9AB439",
"T. c #819745",
"R. c #93AA40",
/* pixels */
"h.2.O.5...R 8.e.a } r.B m m Z Z { 4.v.p p J G { ! | x.H c x } n.7.q.7.8.U.6.Y | ,.m ~ &.m.8.i.x X W r.<.l Q *.} { g.q.6.G X.Q / ",
",.g.M.Z A 8 q e.w.+.1.} <.Z m 1.H | 5.8.` ` W A.#.G.5.{ { n M 4.r.8.7.>.-.5.c Q ) m ( 8.f. .R 1.l r.G.Z Z 0.Z H 7.P.2.p ) } 5.s.",
"| *.1.~ g } ~ | H } ..M 6 s { |  .5 J :.i.G.U.| { e.Z m 1.G x n !  .b.H.| X...) ) W v.7.5.R Z 1.l 3.! l ) M Z n X.l.&.r 2.X.Z P.",
"} ) 8.1.u.7.9.n 0 5 I M R a.p 8 K d.q.x.*.B <.| { H B  .Z 5.) { ..n n %.J 9.U.X.1.H ) p ) _ ,.` e _ _ ( ` ( d ; t.4.v v %.1.H ) ",
"w.8.} q.H.y.m ` ~ W H 2.8.x i g.v.n.D ;.7.| ..` 4.B f { S } Z 8.t.) R 5.9.7.9.D.l X.r.5.1.R 3.3.J.0.1.9 R h.v.D r.B ) B ~ m } 5.",
") q.5.J h.2.2.M.d. .n | l.d O.r.4.#.n Y i W | q.X. .e.| c Z ..8.1.3 j.0.e.#.v d Q %.d %.r.,.x _ 3.E m Q 6 R q.H y.2.Z l B 5.8.p ",
"2.q.1.f 1.x F.F.} l.*.b ! 5.l.1.m } m ) 9...;.k.q.=.4.J B b H ..{ I ) _ %.M G I 2.S ,.B %.2.c g _ ) x X.r.2.m M x x w e G w n W ",
"t.1.i.9.9.( R.1.{ b.} g ..v.G.<.m ,.! d 7.B.9.X.S H 9.m n x { 2.! { ) ` 5.1.H 8.8.G Z y 6 X.h.,.z %.5.j.} W L 3 x 2.} f.I n ( +.",
"G D ..,.5.t.H.,.a 4.H Q W v.k.{ Q ) ) q.n.7.D G B b _ Z } ..M 2.| Y 7 $ z x E m *.n Z p _ e.M 2.) b 1.u.} ..d.o.~ | c.Y 7 x.V.c.",
"W v 4.| e.e.&.5.m ^ ) g X.q.c W ) Z 2.! D 5.| M Q ! ,.A &.W m 1.O.X.| u / 0 6 ,.C C Q f Q 1.l ) | C C #.7.H.r.7.<.k -.| 7.k.b | ",
"} g ..r.G.G.| 2. ...B  .J.,.` ,.{ %.Q R y.b D ) c t.t.W < Q g.| e.! 1.e.h.J.) C x e.p v _ Q m n } H H &.g.b.M x.l.c n u.b.t.Q | ",
") ( 9.g.;.*.c b 4.J 7.6.#.1.2.1.W 5 ' ` R M 5.J H &.1.x 6 ` G W M 2.b.b l <.%.1.N ` e.A c ,...! 3.H t ! v.x.m 4.2.n ] 8.L.5.n _ ",
") 4.5.0.&.B } m c ..| H l _ ) 8.2.g 9.9.6.c.) m } A l ~ 2...) W I 8.>.3.! } e.} Z x _ C | ,.r.1.Q ! } ) Z 3.m c ..) R 3.*.! Q Z ",
"e.n ~ *.,...a ..x.H G R m <.Z 8.5.} 9.z.z.5.{ H 2.! m a.q.1.,.) p.} #.) ..~ Q ) %.3.Z 1.n n M ,.3.m ) C x a.H ) Z g y.Z.B ! Z ) ",
"R R y.g G &.Z &.q.H <.! l } *.5.-.J G _ d m { p { x i ! H g n F.| } %.Z 5.f.~ n x z C %.x n 2.8.) ! [ Z 3._ u.X.` 1.w.B m |  .b ",
"..+.n 8.2.Z B } B _ H 5.Q ,.8.| } | i ) r.g w - O | 8.W } c m | 4.H | i 5 ,.e.1.3.[ Q } B _ b.,.n ` e.%.Z.0 2 8 ,.1.| X.6 w I 8 ",
"} G.S.k.D { } n } } B 1.J h.,.! x n Q ,.D  .= : E ~ ) <.A ) 8.| ) f 2.Q I 0.*.H 0.9.,.m 7. .i @ h.A.5.3.) X.W ( 2.6.Q 8 ) F.v.! ",
",.,.S { 7.| <.| 0.Q X.0.m 3.` Q %.! , 3 X...r.8.Z.e.,.Z 0 8.B 4.e.x C 3.t.*...4.D ) 8.1.n m G x 3.h H 5.8.N.y.! c x.1.I g.&.H } ",
"H q.7.G D <.:.:.1.) J } c ) 1.e.y.9 5 ) 7.! m Z z _ n 0 ,.H Q B q.&.x x } m m b ! V D 1.i m i +.3.Z Q O.K.4.4.C.Z n  .B.w.} 9 5.",
"h Z r.| d b  .! Z | J.Z ) ` i.B 0 s 6 0 ~ !  .{ 3._ *.2.u.H | M p } 3.! N ,.W { B 1.M n 4.r.m.O./ ..} y.Z ^ 8.{ c ^ 1.Q x s | { ",
"<.Z x +.X.W B { M ,.c.Q ! ,.n & I  .d I M ! u f ,.A m A 0.N v p I y.;.i.l H H H Q } M { V.t.8.a._ H u d , f W W ) | | _ 1.} 1._ ",
"m i 9 8.q.5.m D | Z 1...A B m g G m 7 2. .^ m X 0 < s ) ) n ) L ) e.9 _ &.m Z G *.,.M ,.&.&.Z 5.m % T ( g g  .M g R 3.G N <.:.C ",
"_ r ,.8.! ;.Z m A V A #.n %.C E I s m.V.8.| 7.8.j.s.0 G m 1.f z ) C _ m _ Z | ;.M 8.q.M g c g._ x t ,.n q X.( ^ P X s 5 g C ) n ",
"g x Q ! 4.} m Z _ 0.R x C x ,.n + ..7.m | ^ r.{ Z q.1.} l 3._ Z m ` x E 3.,.l G | G.G H ) l } %.C E x s g.A.1.X.2.2.p.o.5 %.) } ",
"W ) N +.p.Z Q c ,.5.<.x | M x x n m / ! i 0.Z...x V e.2.B x 1.} B ;.t.%._ _ m C _ A z ) &.d m h | R & <.5.m 5.~ g.A %.w.3.) l 0.",
"e.A Q Z.J.m Z H 0.1.p <.9.) W } j.q.y.p +...*.D [ Q _ _ ,.} Q H _ Q _ ,.` n _ Z Q ` 2.8.| Q ..N Q ~ P m ) W g r.Z.Z x 2.1.1.C x ",
"m } B %.%.M } ) n | _ W } Q 0 ,.4.m m v.5.| 1.Z 1.y.E x Q } m ,.l Z / 2.1._ ) M ) A v.-.f 2.8.M p ,.j.e._ P O.} *.,.` Q 3._ %.) ",
") ,.x J *.;.a /  .i m 8 d ) } x b m m e.*.) } c ) 1.2.,.B Q Q <.z m Z.r.i I y.H H.) b ,.C Z | W x <.;.m A r.8.| 3.M 5.[ l x B ,.",
"Z | x m x ! Q 1.6.{ @ * X m 1. ...| ) d 2.! 2.s * 3.e.} r.i.M Z ..O.A 4 f.F.g.&.G ) n d ! 1 ~ / M R ) I v v.,.A } Q J i.[ ..n E ",
") Z } y.A m 8 p Q ( ` ( P...) } 2.m p ) A 8 L r.t.5.D 8.$.<.1.,.| M W - 1.} ,.,.n | h.c = @ X _ 1.` | %.A R 1.! 1.4 $ 3.0.%.r.e.",
"3.A { y.} g   5 r.*.5.7.Z x.5.,.7.} 5 } 5 ~ e.r.t.2.) H B B #.3.5 C l  .v.d b ! P m m  .g ] Z.` Z ,.,.m d ` ) 5 x i.e.q.D 4.1.,.",
"1.3.| i.Z O s j.4.v n H Z  .f.q.9.J }  .5 X.A.4.%.f.x ! _ ,.Z Z ! | ( y.) } _ p   7 i.7.k.7.D b.5._ 1.{ 8 | 2 ~ 2.t.c.2.Z H N A ",
"N 1.3.i 3.C 1.S.} ! e.D } X.L.8.9 ! G 9.d.7.| b G i.6.H x J Z n F.G.P. .( { ) X 9 e.e.v l ,.Z | i.h.:.} } ! w 7.A.-.,.p.g Z } %.",
"Q } _ Q ,.R _ 2.2 _ n Z v { l.1.x } 8.m n.9.m G M | J G 3.} m 1.5.-.b j. .~ ,.v 3.I.V m e._ G y.K.1.f Z  .r.y.1.{ { { g.4.G R A ",
"m 1./ y.8.0 ) ` / ..W Q O 1.0.N l H ;.}  .2.c d Z q.| n m 1.,.G B M i.7.C ! &.R 3._ p A ` B N G l.;.f { <.{ K.8.M H b } | G 2.,.",
",.Z m i.3.F.h.<.x s 8.A.1.8.} ) H m ~ ) $.q.w.x ~ i  .r.} n.4.) x c 8.e.m.t.X.8 ! ` ( ` E g O p.5.b m &.4.} { J n g G z.D x G %.",
"*.B I B } t.Q W Q i w e.H X.<.) a n 5.g.p l 9.9.M.v.b.F 9.e.v D 1.d M ,.1.3.f.m.w.2.P x r.v.J x.} N ) n m Z 4.l.8.d W f | ;.{ N.",
"B | ..i | e.5.! ` g.e.x M R g f 5 | 4 f ^ +.r.4.J q.6.{ H ,. .M ,.1.d c R ,.#.c.Q n m 3 s l.{ X.1.H W z q.e.a m r.5.v.s.N.#.k.r.",
") v 1.2.r ! 1.t.h.| W g 6 I J } p.! U  . .L.1.c.%.G } ) *.h g | Z H <.b.8.M 1.e.1./ ) h.a.n ! c I s 8 ..0 R ~ O.r.*.4.w.9./ { &.",
"Q | A H <.g.<.A.r.| } T.X./ ) w.{ & 9.c.c.H D f ) { ,.y.} ! 3.G B | ^ v.9. . .&.*.r.g.| n L 3 d } ` f.m P / } A.3.Z.D G ..{ *.m ",
"2.Z G { Q h.m ) 4...A.b.u.4.M <.| 8.k.M H ! d } W { w.k.;.8.<.B c A u.5.4.} n } 4.H.i...{ p.@.! } l.M : 5.G.Z.J H l } { | | | x ",
"4.B c D q.r.G i.~  .P.S 8.z.v x y.g.x.} Z y.m ! Z.e.X.r.D 4.7.m N v ` A } r.M X.b H 2.,.n.M.7.J M 4.| 7.r.M J W I ) I ) l.q.1.r.",
",.m m m / | %.r.4.L.n.! } 5.x / X.L.w.! Z ) m 7.r.1.-.m b | D m R A 1.8.} { H r.) i.n +.L.G 5.z.m n 7.v.x.G A 2.x ..x.;.7.k.F 8.",
"Z m W Z 8.q.) 4.;.x.4.{ a } ) x X.5.b W ) M 5.2.5.1.{ A v c | H g.) v 5.1.5 ) 2.,.x.X.D.N.M 8.5.n ~ 8.L.r.c _ _ R 3.r.>.4.m b <.",
"G H 9.m m 1.<.M.H.5.&.X.! ` n  .L.) ! { ) r.n I <.D J c ` b.%.0 h 8 ..;.D W 0.q.) ;.4.t.5.Q a | Z ~ | 5.{ Q ) Q 5.q.9.J G { b m ",
"| X.x.! J B ) 4.| 8.G { ,...X.l.n. .4.1.c P ~ y.n ! 8.b %.r.5.+.Q p c.G m z Z Z m i.A.1.;.} ^ { x ` G.A m Z Z 9.Q d 7.D } Y _ q.",
",.,.| ! g m r.=.n l <.G { H 8.D { x.2.5.3 ( 3.~ <.5.Z G ,.Z c 1.Z.4.3.} | J m ,.1.A g.1.{ M. .} 2.A.~ f ..Q _ d R a.n ) *.b ,.q.",
"B | 9.l.n g R Q r.) 9.x.{ c ! } d.4.5.4.2.<.l.D.c.*.Z x 0.1.x m ,.n ..} 9 3 Z ..,.s M 5.4.F.L.7.<.D 8.h.1.y.6 ) X.n ..5.b J %.B ",
"e.) g 5.5.9.3.s.&.1.b.H H d g 6 +.Y m b 5.} %.5.} H ,.%.Z e.C x ! A l ~ U +.M 6 K ..v.6.e.Z | 1.| B g.| Q B ! ,.A.A.L.J b Y b Z ",
"n m Q 8.0.3.c.1.) 2.b a u s x 9 a } ` ^ 2.8.V | 8.<.Z b 3 E 8.m.x D | 1.4.{ 8 7.m.k.6.-.0.| } { } ,.,.5.Q W 8.F.} *.} p m - Q m ",
"( I F.8.t.#.m i r.A n 9 8 i.5 R W ` s + 0 v g m | H c c U 8.<.) ,.n D A Z.c W r.4.8.n n 5 n { q.1.A 5.1.e.h.7.{ s 7 , { ) 2.2.5 ",
"} J.,.G m n L 2.b M G Z Q m L s.m.^ 8.d L ~ > m D ) n c L 1.N n .._ c 1.H 2.v.r.m H ) n p.} X.6.c.=.9.2.w.A.X.! p.o.....<.x ` } ",
"..4.A ) Z <.} 3.A m B W f 5 f.8.5.<. .r.9.K.2.M m _ ` g A ! C R ! 2.V ,.%.s.K.6.m H { p  .A.q.u.G ) q.X.! q...r.P.| | 6 f & I W ",
"G 4.m v Z Z q.| ) N m ,.3 x H ) l ,.p.q.i V &.8._ C 1.5.z ) ,.Q } 5.p m b y.l.%.m ( Z 4.G.9.D F B c *.|  .{ T P.,.p O ~ ! g T { ",
"J.| { R ,.3.D x X.| x L X.X.{ Q L ` >.:._ Q 8.&.J l M ) Z J 5.l.m ) ) _ b 1.H R ) m 2.H M 9.| H b ! <.4.x.4.x.L.A n d 5.P K X. .",
"G.! v J } >.Q ) 5.} Q } e.6.4.` 3.u.,.%.` ` U { Z e.{ } A Q x } y.H R _ n W m Z ) %.} U ..S { 8.4.| V.` | 4.l.| %.M W d I M.c.4.",
"<.%.A } W I G W R | 1 m ) B 2 5.t.B 2.G H F.) W R l m ,.Z a } i.2.m  .C ,.f.d d 7.4 U ! ! R J c.) M *.1.*.v.H c p 2.p 6 1...m 3.",
"H 4.n p 8.<.3 P o d i.) Q | Z _ ,.2.} Z 3 W 8.8.<.3.x Z ..m 8.l.n Q u.2.:.G.t.1.{ f 8.v.| A.9.X.B n m t.r.} ~ | v m R n m _ R p ",
"c Y Q 2.G J i # L W ! { 1...! g } n c { I ) w.G <.q.1.` } 2.Q O g Y.0.0.{ X.#.| 2.| | q.A.J F.b.m ) } t.| p i.5._ p 2.g.e.) R 2.",
"2.D 5 . ! ` f.u.n.w.8.H }  .x i ,.0 d ..K.r.A 1.1.A %.8.) h ,.U ..) l 1.g. .p d L n R ,.m 6 4.,.m H ! v &.) b } P n 2.3.z | m.2.",
"y.x . 8 1.0.b %.n J 8.2.6.r.g } s L v.F.,.g.) m N Z A *.W p l I h.A ` ,.) Q W s ) 2.1...e X.1.;.%.g ) / s ! 7 ! M Z x Z x b g.,.",
"2.i 0 F.r.) n | %.) g.F.| b X.<. .! 8.=.A 3.8.Q ..A } l | r.v.y...~ w.,.2.i.T...x J l.d I c.M x ) Q 1.q.g @ @ o  .,.O.} | b 8.2.",
"2.<.n F.} m 1.*.Z Z r.A.M i } { g.n.7.g D ) r.D B ) A Q r.c.k.a.+.P } { 8.H.2.r.5.v H 8.v.r.3.Z x 0 m Q ` I O.Z. .) ,.y.n Q h.5 ",
"3.x / *.9 m f W l f x.J G m t.{ 2.9.b } Z ) 1.Z H 3.m D H -.| H e.X.x.P M.9.m k.8.n ~ f.c.5.y.Z f   f g.1.w.| J F.8.Z 1.C l ,.! "
};
