/* XPM */
static char *_356_680b300765f2e5db9817e8c78bdcc9ee5bda32670049f6d2b5a6661c0785d901[] = {
/* columns rows colors chars-per-pixel */
"96 64 81 1 ",
"  c #57900F",
". c #5B930D",
"X c #568F1C",
"o c #5A8E1F",
"O c #5D9414",
"+ c #5F9815",
"@ c #5D951C",
"# c #5E991C",
"$ c #60950F",
"% c #659B0E",
"& c #699D0F",
"* c #619615",
"= c #649C15",
"- c #699E14",
"; c #61971C",
": c #649C1C",
"> c #699E1C",
", c #67A10F",
"< c #6CA30E",
"1 c #72A40F",
"2 c #72AA0E",
"3 c #66A014",
"4 c #6CA315",
"5 c #6EA915",
"6 c #66A01D",
"7 c #6CA31C",
"8 c #6EA81C",
"9 c #71A615",
"0 c #79A416",
"q c #73AA15",
"w c #79AD15",
"e c #71A61C",
"r c #73AA1C",
"t c #79AD1B",
"y c #7AB214",
"u c #75B019",
"i c #7BB21C",
"p c #558D22",
"a c #5D9523",
"s c #5F9922",
"d c #5E942A",
"f c #619623",
"g c #649C23",
"h c #699E23",
"j c #62962B",
"k c #649B2A",
"l c #699E2B",
"z c #639631",
"x c #669C31",
"c c #699E32",
"v c #6C9E3B",
"b c #66A123",
"n c #6BA323",
"m c #6EA823",
"M c #67A129",
"N c #6CA32A",
"B c #6EA82B",
"V c #71A623",
"C c #73AA23",
"Z c #79AD24",
"A c #71A62B",
"S c #73AA2A",
"D c #79AD2A",
"F c #76B024",
"G c #7CB123",
"H c #7CB22C",
"J c #6DA332",
"K c #6FA834",
"L c #71A633",
"P c #74AB33",
"I c #78AE34",
"U c #74AB3A",
"Y c #78AF3A",
"T c #7AB031",
"R c #79AF40",
"E c #7BB141",
"W c #80B61A",
"Q c #87BB1B",
"! c #84B623",
"~ c #81BA22",
"^ c #83B52D",
/* pixels */
"Ah:LVfcklNBAnmCCNEUnACu78Su8SCu28merrrrZi5n:6bknbMAV4t99r4eeetCCr-FCCDIPJB>nt9AVVeAh99>VDVe-i294",
":g;N>cJ>nnASCC7AIEU3n88SmSF8ruqrFCrr9qwrr9rmnJlCnn78rHtiw=7Z4tV9q45VCnNMMbnCVVV>V-0e>V-9e>>e9:e9",
"DLlNVlL74CVC88STPMM>-CSPFNb5qQrCr4459ut5w77>nLNnVrNe9Cr99CV9i9:Dtt4tCCMhINn>hZrV09Vterw9>VlVVetZ",
"NhgLh:nAhAVCngSPPKMbCDSACm644r45t4rrq48u47nnnbnAn4:h9w64ue>9t7V86etit8nPbnASAe94ee-tt40e:hNhZ2rt",
"NnkLf:lANhAnnbPSPUUPACCS8r9e787ru98453=56758NM78n-6n7->~wtrtt7ntr84rZe6CgnMACn74qZ-rV;19V:V9A&94",
"bhkNA;lNn7A>7rTAPJUYNmmnuq4eCCF5w557r868r875Cnb7V7bgnrViuttyrn47nC7er-5Cn8DMmC7r-r97hh>-h>lZ9e^t",
"hbkIA7fhnnnCr7nADISPIV5br57Cr4r4-4rr5949q5mF47NS6nNh8rCrw2ir4>78MCe9r9e7CnDn7CCCDe8hVASDnccV-rW9",
"JAlNh-glACC47C:ArPnFNhCb544e14C4r7rr4wqeuq558nN7bbbnn7u<wy4w98,n85ZeVDVrC:mngnC5heAhhl^&*>>cVZ92",
"nMPAlO>VCVnn7CVADblD5-tA9q9e5rtCrn28Vr5y587788-6ng4r6N6<2rCr;785rnq9nDrCb7V>&7AVVh;:nAh>khhSAee9",
"ghNcV%=e>:>V68CTCnbPVe97<qq44CmCnn4nnnr9C8>n87>n4bh:5C74NVC45577&749e4VengV-9AnCeVlVNh::JgnCe9-1",
"Vlngf=en:VSn>nIBV>CC7-7>494w9SNSB7778:74nC7Cr8464nM;:nCrN7An8rr4&Vrtt-VetteVVVhmZAhVCVh>LAh>-*e<",
"hlkgh:nCnhBNnnSnVn4rC9>e494Cumb8n:4>67CCCC84,3447;m7n7A75rnMnm45rVii5V7rtW>At0AnZVnnVnAnghnh*799",
"flJhn>nrPM:PNhhNVheAn7m5e94nr76886587mCCb78r33CV738mVnnhnCh754-qwe4r>Seyt7V0!rVe7hAeCVAVhhV>9>0>",
"hAAn:-rnllhNlNNAhn->n87&42r7r8m8r54t5b4n::7nnnAh6r8nPbn5Cn8946e949--WiStZ>9et4Z08>DeZVV8VA>>=>V>",
"h7nAV:bINMNghh>7h>7948Cn&qt9re54525,<nrCgb6#:gN*>rrnICee4774Ce5>nZ04QyVn9ww^C8A9CnDVe-V7-VAf->>7",
"hllhghANPAnhbN>7e47Cr=77-781144qy2w-978mfn7:n:ne78>-DrrCnn4CVii7>eZ0!V-4t0008b7w8nhVV>77>V>>>--f",
"n;jhhg>lnANbh>VVV>bV7>174744-e9<2qq4->r-:b7n8+8mhn:n778:6-eV>->nqrnZ-r!9=0%hn7VZeh-gn8k77>>n:h:7",
"AlcAAhnlSNh:6--97-V8:6&4e49rC9r59r45f>n4nn:mC7nO::gn>8CCr7-ee1CentVneDh170eZV779Vg8nfhhn;>7999>:",
"cLlAnhNNNVnh9C7wV4CV4e49-4ere95r5794nA56386Fb4667ngnmere67ee99eZDAnh-ehe!99r4VC4VeC:*nf>V>e99**:",
"lnlN>hlLbVC>4rh7>4ne4744%e54445e%-r5555tmnnDn48867nAHe48-677ee449AlDD>>>->Veen5C8>nnhb::V0>VV-44",
"L-lA-hNLS7e7>e>V>4nD58-5-9r4548ree718t36nnnn77545:Nnee4tnn;;nVV=hVVAV:ht*V^ehV-b-7bAn6nb**ggn435",
"JhkA7:Cnl>7--4-n7=nC7e=ew94e94455ne754468m8C767nn>hnn=C7nngnh-hhhCDVZZ>GA>Vh>eegfCV:7bn67hggn744",
"ghjh:hVnheV779e>V:776944we=548437>77C846C6=7866n6:Vn7C6Cb:bn:6-n3:Ae9Ver77h:V-*VBnn7ns46-gh:7=:N",
"*kl;fnnh-2&-erVVn-Ver>2-t4=4r46>4ret8348D>b7m3666Sh6DC=:nVnm6>nVg77nre>90eV>V>;enrfgn737*>h#n=-:",
"fllh;nVnnAf:CCe7>e9>7-&454345n74r6848nqCmC78n:nmm8mmmm7nACVAer5nn77b::799hPC4gfbf78=;g:VNn;nC76=",
"::hh:gNNhh:hVSCe>91444445477n>n8e4n-=8688FF77868bmSbm78nb=rrCeVAnm87nA4-4nBm57BnghhA::*n=g7nb6%>",
"LghV777All:hhh8r-99--4947466n:n565776r>7387867:nbbgggm8mn7n==6Cn638mnn-rr-77n7nhhhgL:=>g>::gsg4n",
"Ag:SnnbNNhglgg:8eee99447r676Vbn667-:7C>-m77mbghMMbBNn33br4VAn88n77:6nr7%-,4n>==b=nfgn>n:7-:l:fn=",
"lglA:hhJhlljfhhh>-479---447576746n3>-ZV7m6m7MMgMMbmmB8mBr78An8m7;nnn:*V=6443CV-:38::n#:b:8>b6:b>",
"kfNkhhlNbMkfhhhhh>7eV997944477645g67n8rem+66nggMMB667mnM77CC74=fg::n::C8-473e7:b88+6nggbh784-3=n",
":hlhNLlcAMglg:h>:=49>9494776mn877=77n:7hn6+nnsMbsgBbn77m:mFr7rmfgn#:+nC74=66r4=bbm=:nMhg>hn97-=;",
">hhllLgklk;Nggn=g>>-%0e9488-mn>77rn>mbNfMnmBgMksgkMMMm37m7Cer88n6gb:>=>-7=8nC57fgbbgnsg#gSVn5=7=",
"hhJ:MKgMh;>hngn:--7-421&-e>5hbNg7bVNngbgBbMgsgakk:#fMbNghn=77mnn:g>5>hn4hgr-e7gbh*:gmnkhnm78-78:",
"lfnAgMJhghg;C=>>>=V--49-e-6-nb>8=Vnnr6bB6Bbhgfgkfgbnb#::7nb6#nn68nb:n6Cb-VDV=>>nlhbg7bff6b=n>7n:",
"lVhPlghfhNg::--7>>>-7h>--746eh75-4478nnn6bsgbsMs6n7n6:::h:::@nn:653:776h>--V7-6>n:g7A6=bM>:>-n63",
"fVhLls*hlhNn;:n-;>he::>&*n675-9-94ee46n6nbMsggMsnn676b:::gMsf:;n4r9rnn:ng7*8C==:>:8-m546mgg:;-=-",
"jjnPNNfkgnAhhhh:f*eh;>>%::h=h7=-rr7;8b6:bbnsssb#:b7nbnb:nbM@bkgn-991t>hgnV>65:8n8b7=:77gnhbn->>3",
"jjNNkMlk:lffhhgg;*Vh;*9-g>;8n7:>5n4:7bgfbMbkbsns#:h:bbn6b:NMggbb>he0w-hh77gh:hD7eee8:n>:8gA5=>;7",
"kkcJkknNb:f@g;gh;->-h--9h:=rr4h:=bmh#fnMMBgbsbMsbgbnhng66;:bgghsg:>0e->n4>7M#-e9-rre=7n=-h-4,*g=",
"kkMhbffhg:fhfg*VV*f>V**44-5e4>->>bg@6MbMMMbs#Bsgshgb>n>36Cn##ssaf#:hV-87VVe7:47e74V:6On64-6<4>n6",
"hNVhhng*nnh:;:;->>>>V=>737678C=7n4=ggfng6#ggsgMkkb+n6b:;7:ssggkags#hh47>;we::e7qeee76:gC9%e5346;",
"gg->h-hf>:>:k@:h->>7>-=n8-3-37n;n6>hkgggbssssMks::6bbB:=g@sgsssd@f::738n;>-9h-4Ve-777nb6-e:7C=->",
"ghhkcgg#ghkhfh:=f>>>=6*6:>7>;=ngn:::gggg#sbdMMbshbb6f:>7:;nnbgsb@g;C8h=8V;ew:-6h7->:=::7-:O=74=*",
":fl:*hf>fsMag:=6:h:>>:7>g:h76676;@:nnMbb#sMMasgMkM78=>>:b:n6bbb6gg:5nf:=>-V-hV-8e==:;*#4*O:7-=-=",
":fl:Ofgn:gA:fh::gh>:=*>>N::73676::n7nksb6sMskggbs#673m*;:fbf+=nMMg7*:sN=-r7gn765e>6b#:8*>6.=7%=O",
"hhllff>>bn:ng::n;::h>>>:>=-67#67n:g:::sM:bgfsbgMg##:;n=>g;@n687:>:7:#gN7-=-n:4C77;77@*6:>6=49==;",
"f>gM>:6gkM:::;h:::->7V=;64%4ngbn>6:bgggkMMksassM#ksh:f:;gs*n757=566M#:#::nb:#43:b6=;g*+gOO=6>7=*",
"@:cclg7*:n;:*Nlk:-74e54=V6=C>>n7=36kf#bdbkMkkaadssMs@b#sag:::=V7tq6:g63Osnhn#37=f37g:>g:sfh-*.=O",
"dfNNffn:Jhgh:sJ:X>7-g7e4-8:>V:8:=4:bn8:b#@MsskksJMg:##:hsn*fbC6>3b6776=66bnn>=6:sgg:;7=*b>6=#O>:",
"xAkl@gn>fkfghkMs:>n=:*>=7>3gn7hn=66bn6:nb@a@skkfks@##gf@bggb6t6g=nn>=66=6:nf:ng+n67:#::::;=>>OO-",
"lAfcLlNh:fMhddJMg7:ngg::=>7g:nh6;6:6m6:6b:sskkjfsgkbkhfh#g67rq&n76>>=766M+=fbbgn#43b#bh::*;8+#*=",
"lfVgNAbfbgJksxMg::b:Mhg:>6g6=hnf;f#bm::=:ggbkMsgggffhbfsn:n>:6-36=:n:b+;gM66g#63g66s@hV-X:=::=>h",
"ll;hf:ggdMbb#Jzdg76:bhb7n6gn67=n:aagn:::@fsfgbfgsbbgf#:g6#::=m86;=n:g:f::b#:ssb6kbbgsgb*:7->: O:",
"cAfhN*hgsdMbhJka;n7b:b=7Ngbbn8:>sk@fg:fnkhs##gb6nbhbbn::6Mh:8r::g:nO*#b:7+O#skfbM66##s:@::>4=O:-",
"zhLa:lhdssKsskm#+67;ng:>hgn::8g:ksffg::gMgsgg:bb#:bnh::6bsg6,7Ng66>>h@:#=;Mk#sg6##7:n7:f=V-%>>*-",
"vvfjahlddJMs#BM6bm4nmN::hng:hfgkk:ggMb:@ssgMM#g:#sMMk:#;36663:n46n=nb::6#sskb688s:h*=-=h=e47-*>>",
"ldzj::xxKMxsM7b:4::6b;7bkMbbb:6ngp*6hs#Md@:bgb#ssgbggb#3+66666bBb:b#b::NMb###Ms#n7:.4--,-129011-",
"lljjhldkMdsgM6:n6bbnn;bgs#nb6:ngkkaaMbgkhsf#@skbkhkfs#:mb#388bb6@s;+:n:bgda#bsbb6n;gn-5440&91e--",
"Njf:kkfsJMsm:7MNb6m3bn6n;::bn6gfgO@Mb:Mk#:#sMMs@hfgb::b6m:g66bBBas66:::b#adsbs:#m6gg:=:6*fO1=71-",
"lclgJJxkKMMBMNNf:::36:7mn666b6:gg6:#:hf>gskMssJg;7nmm3n6#gMb6bMbg#6#hg64#66::ss3b+gf:7:--r97e9-7",
"aczfkJkpbn:bBNNbJfm7fhbm6An6n7#bn@::MksbXssdbb76-e7486nmMMbbssbbb66#gbn3+#bb:sb6b#:b76n64qqr9w-9",
"hcclaaldhPMf:bn3Bb:6bbn:n:bMg66:bg:#X#Skxaads75=46=>mb#ksbbmBbs:bnbg336b+asbs:#6m:;g7::=e;e9*%-%",
"cLjkJsjk@fnm=SC=86:=nC8n7;#bgb:b::hkM#:@MJkks:n766bMb#ss##s#66nBss@:6:3bbss####b:O;:e6O699r&<=-e",
"kN@lLJf#A:37=Ng#4C##:6:b8ngb:nbnk@kssdkgsssMs#f:6#gg6bss##:6#bm6ss6#b#45s6b66@#6g::@8=:7:e4*%9-9"
};
