/* XPM */
static char *_0549_2238255eb2e18c901e11cf1d2d2bd1213cfb3f3ebb54bff7c76a495079a880dc[] = {
/* columns rows colors chars-per-pixel */
"62 64 88 1 ",
"  c #4B3E35",
". c #4E4138",
"X c #52453C",
"o c #55483F",
"O c #564A41",
"+ c #594D43",
"@ c #5D5047",
"# c #5E544B",
"$ c #615346",
"% c #62564C",
"& c #64594E",
"* c #655B53",
"= c #6A5E54",
"- c #695F5A",
"; c #6C6156",
": c #676058",
"> c #6D635B",
", c #706257",
"< c #71665C",
"1 c #73695E",
"2 c #716660",
"3 c #756B63",
"4 c #796E65",
"5 c #776E69",
"6 c #796F69",
"7 c #7B7166",
"8 c #7D736A",
"9 c #7E7470",
"0 c #81756C",
"q c #83786E",
"w c #8A7C6F",
"e c #857B73",
"r c #897E75",
"t c #8A7F79",
"y c #8B8177",
"u c #8D837A",
"i c #92867C",
"p c #94897E",
"a c #998C7F",
"s c #918782",
"d c #958B83",
"f c #998E85",
"g c #958E8A",
"h c #998F89",
"j c #9B9186",
"k c #979089",
"l c #9D938B",
"z c #9F988E",
"x c #9E9692",
"c c #9E9994",
"v c #9D9998",
"b c #A29487",
"n c #A1968D",
"m c #A2988F",
"M c #A19791",
"N c #A49B94",
"B c #A99E95",
"V c #A59D9A",
"C c #A99F9A",
"Z c #AAA097",
"A c #A7A19B",
"S c #ACA39C",
"D c #AFA89E",
"F c #B1A69D",
"G c #B2A89F",
"H c #ADA5A1",
"J c #AFA9A2",
"K c #B1A7A1",
"L c #B4ABA4",
"P c #B9AEA6",
"I c #B6ADA9",
"U c #B9AFAA",
"Y c #BAB0A7",
"T c #B7B0AA",
"R c #BBB2AC",
"E c #B6B0B0",
"W c #BDB5B1",
"Q c #BFB8B2",
"! c #C0B6AD",
"~ c #C2B8AF",
"^ c #C1B7B2",
"/ c #C3BAB4",
"( c #C5BCB9",
") c #C8BDBB",
"_ c #C7C0B8",
"` c #CAC1BC",
"' c #CDC5C2",
"] c #D5CBC9",
/* pixels */
"DDNNmmkzSJJHvvvAVxxggxxSAVVMlnMMSLJHDDSZBBBbnbdtbnMnBCCCSNMNVS",
"NBmNmVNADHHHHHHHJJHAVcALLHJLKCSKAHSZSSSZBBFFFFFnNMCMCFCSCBVNVV",
"MVZZNSHKILHHHJJJHIUWRJLLJLLRUIKIIJHKDGGDFFFFGPPPCCCMMMMCVBCCVV",
"DZDKSHKHAHJIJJJIUEUWERERIRWR^!U^EKKIJDDZBBBBZFGLKCHHKZCKSSHHHH",
"RPLLLLILIRUIEIE/WEWUURTRRWUIIIU^^LKUDSSCBBBBFFGGIKKKLKCKUKLKII",
"/UILLLUUWRRPJIW/QR/WTTIRRRW/!UUU!PKPKSKLF!P!!!!!ILKPU!!^!!LLLI",
"nMMfhhnbhmCFKFSCSVxlxlcSNCSSCBCBNNmBBBBZFFFFBFGFLKZBmNnnhfhhnN",
"ulMssisiyfmNMMllksetssddsdhitshdssdfffffbbataaaafhnMnbtrdttsfh",
"aylaridtypajppppue88eyy8yeritdfnhdbfuiuiiruiyiiappyajppydtwyji",
">*<><,<<8<,011774::<::<33==<,<4220,30<,,,,1,10w4q117<,41,=0,<;",
"PZNZFBFmFZZGFGY~ZNKSSTQYZZmlMff0aFttlBmeyFbBGijYPDZZZZZmGBZZbm",
"L~GBZFBmfZZZGGFYKSLjZDPZG~FhBFShZMbbnDKDGGbmGZGGZBZZDBdmbGFmG!",
"YRDZSKUBF!LU_~Y~WKILQICWQRDdsCIPPFLlyxLTRZIGK!LRYY/YKPKZGPZNGP",
"LYDl^LLK!^^!G!_~IEIRJCsC]//RVK!!KPWRILIWRTERY((LRQTSL/RGLPTZm!",
"QRQLEKI^H!!IKR_~E/IEJEIEWUE/IKU!^ELIEIIWW)HI/HTQ(UAH^RJTLS/LTP",
"_QLJKIMHI^E^/(//(ACE)/EJ('^U)II^ULIU//IWEIWWIR(EW(WERTTJNJJDRP",
"RRJNLTxTKULDPWWR/RLATRTJ^MK^^)!^TRTL/_RRRRJSITLTERUHKIDKNJLZAG",
"TLDYHKTLTT^(`/!RRTDSJTTLKBKKCCSFLLTLT_/LTQQQRLLTUW/W^!PILGSGDD",
"QYGPSDLGRPT~/TUYLLDDZLPPPBKKBBCPRZSGLTPPRRRRRTYTUUWWUL!GKDDPPY",
"mnfupfrdllbnfjmnduqequjlaifhstttyyuidmBNMzmBZNladddlfabfyidufj",
"*#%&#=**;,41;=,&@+X   ++Xo+X oo Xoo#=%%=;=,<>,<,,-,34<,==&&%#@",
"lblBjnLZYYYYDBNNnMbdirdiabaitibbzjajhredjasdypnBBNBGG!PFFFbmmm",
"mDmNlbGGGGDBbjfhMBlbmbFFBFFFBnnMNNmbbbmBBmmmzjjjafjmZGGGFNjzmZ",
"mNmljNFGFGFZSBmbjmjSLFFLBFFBBF!LPDBPFBFZZBBFZmzmbNZZFGFGGNljZn",
"BlBNnBCCFCBPZFFGKZVVDDVSSPPPUUPPPBBMMFNSVNDGLPJLDDZDDNZVFBVmNM",
"NSCNCCBMMFFLNFLFDKLZLF!PR^RU!!!!PULURUKSLTRYYLDDGZNSGZZmMBAANV",
"MVMCCKKMhCCBbnGGPRLQRPTLR//R!^^!!/LR!URUDLRLLTTJDNzxZNzxHJZAxN",
"HMMHCSLFMMBFGG!FR/RQ!TTnLULCNFPSBFFLPSNDLTRLLRTDLJJDSczSKKSSAN",
"NBCCPFBFBBnFFF!GPTYPDGDjFLPGG!FfP!!GPGFDFTRTY/RTLLPDDNmZZSKDSN",
"SKPSF!SPL!!LFFF!YGZGmGmZZFZBBZFBbGBZFBBiilFLTRRYRLDDKPRPPGPDLD",
"02,=%,42w0,==101;,;o&&,=&=&$%=,,,,$$=%,%@%>>177881;><7r7<;=&=>",
"0e00itr00t0twtwiyy0qiyaidattfaw0awyabipfiyeetddddpyy8ei8ruyy0e",
"GGRYRQIIIIKEEICIEJHHIIHSIIIHJIHcBBDSLDDDPKDDHLLLR^QKUKKRTT/U!P",
"DGPGHHVHVHCvvvvVJJHHHHVAHAHHJHHHFZZxNZAAZVVVVZHDAHLLJLZAVSLHLI",
"ZSNlZANxvCvggvvVVVVVVHVVvvVcvHVVBZNZSZZzNnMnMNVVVZVZZKCVZCCVNC",
"jZDYKCANvCVxvVVVvvvxvvVVvVvxxvcxnNjlzmmjNllmMVVNZDJSKMhlSVHUHC",
"AlSQDjmZVHCHHHVvVVVvvvxVHVVVNccNCSffllmlbhmMmNZSnNPPFbnMClBUPM",
"/TTRZmSZVCKLHHHHKHHVCCVHIHHVAAVNSFmFDZZBnnmNBBZZZjZ~KKGBKNNIWS",
"UR/LNmNbnBSKCHHIIHHVCSCLJJHVAZVlBBmnBNNBBnbNBNNnSmB!!!ZjnMMLRU",
"UHZVBNjNbnmBVVCHHVVVVNVHHSCAZNMNBnmnBmbbnbbNmbnbnNmnZNbNlSMBNK",
"]EBhCjjNmBZnmzASHKHhhhVVSSSSASVlllMBZZZZZNDZVZlmmMbbNBBBblBbMC",
"sq--3<;<1778486956555555>1523887033477717783784800600413-=>=-3",
"KVstiadjizzZxMllxhshVHVMMNVNxVmlbMMnjkkzzlNNNVkknnMBNbadfdaptn",
"WULSZZmZZDRTLDKLIUIUPUUWLLRTLTPKKLKKYDDDGDLGIWTTKSFPULFBBmBSSU",
"NNDBDNSZASJSSNSHIIHHKIKCSSDZZKLLLILLTLDAGDJJJTIJHCCHKSZNBBFBBB",
"FBFBGZZVSDZDSJHLHEEIHHKKJJHSZJKKKUTTTTTTLRQWWWEIHHHHCSFBBBFFFB",
"NmZFPKDAHHDTLTLIEIJHHHSCAASZAZZDDSDDDJTDLJTEEEEQKKIISSGBFFFFBB",
"GGLFSDHZHHTRRLIUKKJHJCJILSDAAHKKHKJScZDDTLTEEJJTEKIEPPFnFFB!BF",
"YGFFKKSKUR!!/!KKLIHHLLPIPLULKFLPULLLLSZCFGUPPFLLIKW^RWRPKKFSSS",
"PRRKPPPPKPUYPU!!IJHLLHLRIDSHLUUIPUPPUPUKKLLGFFGPU!ILLKUPVP!LUU",
"PGYPPZNZFL!~Y!PKHCCAHPITIFSCNSU^KPPKPUPSCFFGFFZZZ!LU!PDZCFKP!P",
"P!!YPPDZFKP/~)PFLAldlNHTLPKFPPPP!!!P!UIKPPFFFFCNP!U!YGDZCFLPP~",
"141>>5>11>>20q885>>53-<e8q3<4<=,10142<36566688850371;<<1131><3",
"NNmVlzlVlxljZmmNxhsjhdlKZnirddrraabfirtdesVNVcVhnfZmjzzzzjzmBN",
"ZKLSZDNxVSDSDVNnbllfhhjnZBBZBmBBBBBBBnMMhCKSCVVvnlZZZZZNNDFBCF",
"VnNlDVNMklVCNSZllllnlfjNClNNbfnfbatanZCCMHSVxVvgnMMVAzkzmNBNNm",
"VVVMVVVhCSVVVCHSVmmNlNDNMbhnBFFbaaaBbbBBVKCvCVVHVVCMxVChzNVVcN",
"VVIHVAVxvHHHEHHImzjljmNbbffbnnBnbbbaFFFFNHHHHVvHACHIJVVxAAVJJS",
"VVHVVVCVHVHIKHKHZzkdjjllhhdbnBBnFFFbSFCSSHIJAVVHJCCIJCVVNHCVVA",
"KVEVKEIJUJIWEIEHANkdjllNhffBFGFBbBPFBCFBVVIIHJHVSIIEUIIJIEKSHJ",
"IKIKHLJHVLCH^LVVNxdiddklhdlFPKFBFFFFbBCVHNHJHJAZxHIHSSHSKPSKEI",
"HHCLSRIDCPCCIHCSANzsdjjlBNBLPSCFP^CFSSKKHcVJHAZAVSSCZSSAKILKLC",
"hnhCSKHMMMMCMnVNxxxkkNNVZZSFCnNVMCMMhhshggxAAZcxMflVVMxjSLHNlh",
"452-*%<%#&*<<****:-*&**&>>=;***%,%-2----:3>:#&2:*%*>*#**>**><2"
};
