/* XPM */
static char *_5018_29f86edae0c3527dcdfd4e7aae88c699e01e91c3261851569deacc1716747fe7[] = {
/* columns rows colors chars-per-pixel */
"64 64 68 1 ",
"  c #847F5E",
". c #86805F",
"X c #868261",
"o c #8A8564",
"O c #8E8967",
"+ c #8D8768",
"@ c #8E8969",
"# c #908A67",
"$ c #928D6B",
"% c #96916E",
"& c #9A916F",
"* c #979170",
"= c #9B9472",
"- c #9E9875",
"; c #9F9B78",
": c #A29776",
"> c #A29A76",
", c #A59C79",
"< c #A99E7B",
"1 c #A6A17C",
"2 c #ABA27D",
"3 c #B1A37F",
"4 c #A4A280",
"5 c #AFA380",
"6 c #B2A582",
"7 c #B5A884",
"8 c #B8AA85",
"9 c #BDAF8A",
"0 c #BFB18B",
"q c #C3B48D",
"w c #C8B78F",
"e c #C7B790",
"r c #C7B891",
"t c #CABA93",
"y c #CEBF98",
"u c #D0BF96",
"i c #D1C197",
"p c #D4C49B",
"a c #D9C79C",
"s c #D7C89E",
"d c #DBCA9E",
"f c #DECDA2",
"g c #E0CFA2",
"h c #E4D2A5",
"j c #E8D6A7",
"k c #E6D5A8",
"l c #E9D6A8",
"z c #E6D8AB",
"x c #ECDCAD",
"c c #F0DFAF",
"v c #EDDFB0",
"b c #F0DFB1",
"n c #EEE0AF",
"m c #F0E0AF",
"M c #EEE1B3",
"N c #F3E5B4",
"B c #F6E8B7",
"V c #F8E9B7",
"C c #F3E7B8",
"Z c #F6EBBC",
"A c #F9EDBD",
"S c #FAF0BF",
"D c #F7EEC1",
"F c #F9EFC0",
"G c #F7F0C2",
"H c #FAF2C3",
"J c #FDF6C9",
"K c #FFF9CB",
/* pixels */
"ywtutitwwtrrttrqwq8qq9q9qeq9qeeertrrq00ewtwweq93qwwqwqtttwqqwuuu",
"jxlxllljjjjjlxllNcxxjfgxzjhgzhffphjjkfffgjkjhghhhjlhxNmcxxxxxxxc",
"NNNNNNNNNBBNBBBBNcmcNVVNbbbbNCZVNNvNBmxncbVCNxxcNNNNCBnNVBBNBNNm",
"VBBVZCVCZZBBNNBSASVmVAVBBNCZZZVVNNxNNBAANBVVNNNBNBVBVBHANmcNVAVV",
"FFHGSHSAABZAAANVSVAHHAVAFVVZZZVVVVAVBBNBVVBVAAVAVVAAABVVBZAVVZVA",
"HHGDSSHGASSASHHHSAASHAAAZFAAZAAHZVBNBVBBVAVZAAVVFHHAAFAAAAAAFHHS",
"DDDZASZGGAGSASSAAAZAAAAHFFZFFAAAAVVmVFAHHSSHSSSAASAHHHGDSHSGGGAA",
"ADDAADZZGAASSSHHHJHHSSFHHHHFJAHHAJHAAVFVVASHSASHHHSAAAGAGAGGGZAD",
"FFDFFFFFAAFHJHHAGFHJHJJHFHHHFFHHASAAHHHHSHSJHFVAAAAHHHHHHAGJGAAG",
"JJJJHFJFAZFDFHHDZVADDADFFFFZCDZFAAAAAHSSAHHSHHHHHFFHJJJJJHAGHHJJ",
"DCCFFFFDGDAFHHFHHHHHHFHHFFHFHFCZHSHADFZHAAAADDHFAAFDFFDZAZDDDDZC",
"DCDFFJFDVHHHHHAAFFHFHHFFFJFJHHFDAAAAVAZZADAADZZZAADDDDHFAZDZAZZA",
"CDFFFFFFDZDZDDZZAZDDFFFFFVDCCDDDSAHAZAFHHHHFADFZDZFADADFFFDFDZZZ",
"DFFAFFFJFHFDVAFFHGACZFFDAFDFZDCZSHHHAHHHHHAAJHHDZZCCFHFFFFZAZZFH",
"vvbbCCCDCCCMCCCMMMCVZCvzvvbCMCbNZZFJJFFFAHAZBCAAZZVZCCMNCCNMMMMv",
"oo+  XXXXooXXXXXooooo+@oXoo oX+#$$$$%$$$$#$$$@$$$@$$@$$$$+O$$$@o",
"4:<,-;,-;--:>>,>>==--=*=*=--=====&&*%-%%*$**&***%$$%***-******%=",
"hffgfzkhhgfgzkhgfffggfffffgghfadffghdafgggffggaaaffhhhffffffffff",
"vvCCCvvCNMMnzNNvvvvxvbxvxMnnbvvNNbmxcxMCbxxbbbbczhfvvMxvCvvxvvxv",
"CCCCCZCCNNCVZVCCCNNCCbbDVVNCCBCCNNxcAVNMNNVCVDAAAZCCVCCVCCCBNNBV",
"AAAVBAZNCNNBVNBZABAADFAVVCVCNNBSAABASVCZVCDZCCCNCCBCBNVZVZVZZZZZ",
"AAAAAZVAASAAHSSJHHHGFFFFZVSDAAZGVVHHAZSSZCVZDVFFFHAAFAHHHHHHFFFZ",
"HHHHAHFAHSSGSAADAAAAFFFFGHSGDAASSAVAAAAAFAFFFFFFHHVZFAFDDZZAFFAH",
"HAAFFFFHAGAAASDDDSAAFFFFSAGAAAGAASGZAAAHFAFFFFFDAHFFAZDZDDZADAAA",
"FAHHFFHAAHJGAADDAZGGDGGGFFGHJGGGGJJJGGGGGJGGGGHJHJFDDDDDZDFDDDDA",
"AAJJKKKJHAHSHJJJJJJJGJHHDDDGGGDDZZZZZJGSDHDDDHDDFVDFFJJJJHJHJHHH",
"AHAHGGZDDGHHHFDDDDSGGGDDZCAGDDDDGDDGGZGGGGDHGDDJJJHHHHFHHFFDHHHD",
"DDDAGGDADHAAZFDZZZGGGJGZGJJJJGJJGJGGJJGJGHJJJGDFDDFDDDDDFZHHDHFH",
"DDDDDDGHDHDHADDZGGGGGGJJDGDDDDDDADDGGGAAFFFFDDHHDDDDDDDFJHHHHHHH",
"DVDJJJJHHHHHAHJHJJSJJHHGJJDZDDHHJGZVGGHGFFDFHDDFHJFDFJFFJFFHHHHJ",
"CMCMMMMCZMMMvMMMMMCMCDZZCZZZDZCCCCVZZNnMAADDDDDCDCCDFDDDDCDFHHHF",
"X   XXXX XoX  Xo.XoXXX XooXoX XXoooooo+o + +  ++    o ooooXXX oo",
"7666<<<3663363<,<625338333223888776776662663663<33::,<,:,,,,,,<<",
"skklgfgghlhggdgdglgfxxmxxxjjlxxllkllljlghjhhjxjhlxlzjddjljhdjhgd",
"zMxxbxlllcNNcxxcNbNNVNcNNNNNBmNMNNNbNbNbMNMNBBNNNNbccBNNNxxxbbNN",
"BBbBCVZVBVVVNcnBNBCBVVABNmmBZACVZNNVVVCBCAVVBNBAZVVcBABBNNNVVVDV",
"NBBVBBNVBBBNAAVAVZAAVCABNVNVVVCBAAAGAAAAABBVVVNVFAVFHAVAFVVVDDCC",
"AVCBVVBNBVVVAVVZAAFVHAZAAASAAHHHJHHGHHSHGZSAFHAHHVAHHSAAZAAADVFF",
"VVNcVSSHSHFFSAAAFHHHGHDAAHSAGGADADDZAGAAAHHSHAAAAHAVAASSFFFAFFAF",
"HHAAAAAVVAHHAASHHFAAAAHDHSFHDADDDDDZADZAGAAGAAHHFHHAASAHHFFAFFAF",
"AHASSSHSSHHHSAVHAAFFSHFHZAHHHFADDDZGFFFFAAFFHJHAHHHJHJJFHFHJHFFH",
"VAAAHHSSHGSHHSAHAAAJJJJJJFFHAHHJJJJJJHJFFAFFHHHHAZAFFFFJHFFZCDFF",
"HHSAAAASADFDHHHGHFHFHGFADDFHHHDDDZZDFFFFFDZZFHFFFFFHFFFFFDFFHFCV",
"AAAZAAAAADAAAAAAVFFADDHDZDDZZCZZZCCDFFFDZFFJJHFHHHHFHHHHHJFJJHFF",
"SAHACAAGSHHAZDAAFFFFDDDFAFFFFDAAZDFHFHFHFVFZZDZZZZZFFFFAZFFFZZDD",
"HAHHSHHHHAVHHHFAZCCVDFFAZAZZZCZGZZFZZDZDFFFDCCZAFHACVAFFDZZZZZZZ",
"HHJKKJJHHKJAFHJHHHZAAZVZHHAVVZAAZAZZFHJJHFFAFFFAFAFHHHCbCAVZZZDZ",
";;111-;;-->:=-=:*=--*=-**=**-$@%$*%$$$$***=$$*&##$%*%%%$###$$$$$",
"+ooooOoooXoOo@oooooooo@@ooo+o+o@$$*$@@$@$$+$@$$$$#o+$+o@@@$@@o@@",
"uippiippppipppiiupyppfpppppppippffpsffffppppfffsapyfppiiipppfiyy",
"NmcxjjmNxljnMxzjjggbvvzxvvzvxxxzzvvMCvbxvvvvvvMxzvvvxxxzlxzxvvlM",
"ncxNZBCnNNNBVZAAZNCNCMCCNNCMNNNVNNNCCMCCCBNCCVNBCbCbNMCVVCBCCNNB",
"FVNZSCCCCCACCCCNVCNZNCZCBVVZVVZVZAZVBAABNNmVVNCZCBVAZZVCZBCNNNBA",
"VVHHAZSSZCSZVZSAAFZZAFFFHHFFHFHVZAZFAVVAAFZVAASHHFHHHHSHZBAAAZBA",
"AAZSSSZZSSAZAHHGHFZZFADDDDFAFFFAHHHHFHAAAHFFDSSGFFFAAGHGSHGGDAAH",
"GAACVASSSZASGASZFFAFDZDDDZZDDZFFSFAASSHSHAHASGAAFFAASAZSSSGAAAAA",
"GJJHHGFDGJGHHHHJHJFDZZDDZDDDDADFHHHHAAFHAHHGAADDAZDGDGDDSZGGHGHS",
"DADDGHFDGGDDGGHGFFDFHJHJHHJHHHFHAVHJJJJJHHSHSGJJJJJJHJHHGGGGJGGZ",
"ZDDDDDJDGDDGDVDHJHHHHJGGHHFFGJHDAHHHJGDHFDHHHGGGGGGHGHGHSCCZGZSG",
"JGGGJJHHJGHJJDHHGGFZDDDDFDGDHFHHFFAAGGZADGHDAAAZZCGGGHGDGJJJJGJJ",
"DGGGHDDADDHFDGJDDDAFGDAFFFHJHJFFFDFFDDHHHHFFDDFZGGGGGHJHFGHFGGDD",
"GDCVFHFFDDDFDDDDFJDZDDDHHFDDDHHHDZZHJHHHFAHDAAHSGJGDHADGHGDZCDDD",
"HHHHJVVFHHJHHHDHHHHHJJJJJFJJKKKJHZAAAZDHJSAVVFHSSHAAHJKJHJHSSJGJ",
"<111<2<<2<222254,>:<<22555<<4222>>--:--->:,>-&&>>>1,>>->,2112>-;"
};
