/* XPM */
static char *_6236_3d60ada48912649725f7f71cbd70f9221f14fbca94322b3db1c327ad9ac5144b[] = {
/* columns rows colors chars-per-pixel */
"64 64 131 2 ",
"   c #8D7C6A",
".  c #907F6C",
"X  c #92816D",
"o  c #968572",
"O  c #9A8977",
"+  c #9D8D79",
"@  c #9F907D",
"#  c #A08F7C",
"$  c #A2927E",
"%  c #8F8784",
"&  c #948B85",
"*  c #998C83",
"=  c #958D89",
"-  c #979086",
";  c #9F9385",
":  c #9B938C",
">  c #9E9691",
",  c #9F9892",
"<  c #A18E80",
"1  c #A59483",
"2  c #A89686",
"3  c #A99886",
"4  c #A3968B",
"5  c #AA9789",
"6  c #A59A8C",
"7  c #AB9B8C",
"8  c #B09E8F",
"9  c #A09792",
"0  c #A39B94",
"q  c #AB9E92",
"w  c #A69E99",
"e  c #A89F99",
"r  c #B19F91",
"t  c #AFA28F",
"y  c #B1A18F",
"u  c #ADA194",
"i  c #A7A09A",
"p  c #ADA39B",
"a  c #ACA89F",
"s  c #B3A494",
"d  c #B8A796",
"f  c #B7A895",
"g  c #BAA996",
"h  c #B2A69A",
"j  c #B9A799",
"k  c #B5A99C",
"l  c #BBAB9C",
"z  c #BFB09C",
"x  c #AEA7A1",
"c  c #AEAAA1",
"v  c #B0A7A2",
"b  c #B5ACA2",
"n  c #BAADA3",
"m  c #B6B0A6",
"M  c #BDB1A4",
"N  c #B7B3AA",
"B  c #BDB3AA",
"V  c #BEB9B1",
"C  c #C0AF9D",
"Z  c #C2B19E",
"A  c #C1AFA2",
"S  c #C3B4A4",
"D  c #C8B7A5",
"F  c #C6B9A5",
"G  c #CAB9A5",
"H  c #C3B6AB",
"J  c #C9B7AB",
"K  c #C5B9AC",
"L  c #CBBCAC",
"P  c #D0BFAB",
"I  c #C2B7B0",
"U  c #C4BCB3",
"Y  c #CBBEB3",
"T  c #C5BEB9",
"R  c #C9BFB8",
"E  c #D0BEB1",
"W  c #CEC1AC",
"Q  c #D2C2AE",
"!  c #C7C0B6",
"~  c #CDC1B4",
"^  c #C6C1BC",
"/  c #CCC3BB",
"(  c #CFC8BD",
")  c #D3C3B4",
"_  c #D8C7B6",
"`  c #D6C8B5",
"'  c #D9CAB6",
"]  c #D3C6BA",
"[  c #D8C7BC",
"{  c #D5C9BD",
"}  c #DBCCBC",
"|  c #DED1BF",
" . c #E2D2BE",
".. c #CBC6C1",
"X. c #CFC9C2",
"o. c #D1C7C0",
"O. c #D4CBC3",
"+. c #DACEC3",
"@. c #D4CEC9",
"#. c #DACFC9",
"$. c #D6D1C6",
"%. c #DCD1C5",
"&. c #D5D1CC",
"*. c #DCD3CB",
"=. c #DED9CE",
"-. c #D7D3D0",
";. c #DCD5D1",
":. c #DEDAD3",
">. c #E2D3C3",
",. c #E8D7C5",
"<. c #E6D9C6",
"1. c #E1D6CC",
"2. c #E4D9CD",
"3. c #E9DDCC",
"4. c #E1D7D2",
"5. c #E4DBD3",
"6. c #E9DCD2",
"7. c #E6DDD9",
"8. c #E8DFDA",
"9. c #EDE1CB",
"0. c #F0E4CE",
"q. c #EBE1D6",
"w. c #E6E2DA",
"e. c #EAE2DB",
"r. c #F5E9D3",
"t. c #F0E6DA",
"y. c #EEE5E3",
"u. c #EEEAE1",
"i. c #F1E9E5",
"p. c #F5EDEA",
"a. c #F9F1EF",
/* pixels */
"L Q ,.z W *.$.N :.=.O.B Y ~ l s *.6.q S } 1 $.t.$.N [ 7 D +.O.0 a U Z F } s 0 V T X./ ]  .L { 5.$.u k F @ W 9.` ( *.;.> 9 o.] n ",
"Q _ <.S ) *.$.m w.( N B ] ] l s =.5.s Y | 6 =.w.$.c E r C Y ] m k ~ z S } k B :.^ $.{ {  .K / =.$.u M W @ G | ~ ( $.-.: 9 o.] M ",
"Q W } K ( =.$.m :.X.m K R ) j l ] +.7 ) ) 6 $.=.o.b +.j A K ..c B F t z } k I ;.^ O.[ } } K / $.{ i S W 1 S | ` O.=.;.: > ( ] S ",
"D G ) F ` q.$.a =.$.V K Y ) l l ] *.u ) ` : ( =.R v E r A K ^ x ! V t l ) p B ..^ / Y ) } F { *.O.u z G $ z |  .%.;.4.: w +.%.M ",
"D W ) S ] 6.{ : 4.#.m n H [ A j U 1.7 Q ' , / =.O.: n 1 j A T N ( ~ s C ) s I ;.X.^ U ~ ` K { *.$.p z G @ z { %.*.1.:.: i &.*.S ",
"G ` ) F { 2.~ - 8.O.e n H J l l U 1.u K ' t ( w.#.9 A < j H R m { ] l C ) M T 7.@.^ K ) _ L $.5.%.k M W @ z | $.#.&.;.= p %.+.k ",
"Z ' Q K { %.B : *.Y q b H n h n %.q.m W | , $.=.O.h E 5 r A R x { ( S l } K N ;.@.^ L ) } K $.5.$.s S L o g | | #.*.4.= e X.) q ",
"D ` Q L } ( k : ^ n 9 n Y M j A $.2.k W ` ; =.w.O.x o.j C j T N ( | P l _ H N w.@.( ~ } ` S +.*.*.k S L X t } ` *.4.7.= w Y K ; ",
"F L ~ M +.~ b 4 I B q b o.H H A #.{ n L } 6 =.w.O.h >.r g ~ V V ( $.W S Q k B 8.-...~ ] ) S +.=.1.u S f X f L | ] 4.4.= 0 B Y e ",
"Z l Q ~ ] ] Y 0 +.~ n b E H J H ] O.S L | 6 =.w.O.e [ 8 j ~ V N $.| F z Y l I :.&.X.] } Q M $.6.+.7 S d . f D ~ +.4.7.= 0 H I h ",
"F l W ` ) { Y 6 O.H I M ] J E I / +.S L | u =.w.@.p ] 5 j ~ U V =.{ z f S h H &.&.( ~ ) L n +.6.=.p L d . l P [ 1.5.7.9 w B J l ",
"G L L ~ ~ | n 4 Y n Y B ] Y Y A ^ =.S A } f *.w.#.v E 2 j Y T V =.{ L g S q V -.&.U Y ) W M $.=.1.u D y . g E } 1.6.7.0 w H J n ",
"L ) W K J E A q / H Y n R J E n / *.S g { k =.y.@.h J 2 j K I V =.{ W l G u I ;.&.T Y ) L l 1.6.*.q J l o C P [ 1.4.8.0 0 Y I A ",
") ) ` L r E ] v I H J b E I R A / $.S s ` M *.e.@.v Y 2 l L I V =.' L g P h U -.$.T ] ) G u $.6.=.q L Z o C P >.#.7.y.e e o.Y H ",
"Q } } M v +.o.n h H A B ] E [ I { *.B f ` k *.e.O.n E 5 l H B T =.$.W f ) k B @.&.V O.[ L u %.*.%.6 Z y   d E [ 1.4.e.e e O.E H ",
"L %.W s J 6.E r h Y H H R R E J %.1.K f W h 1.y.o.v Y 8 l M m V =.2.) l _ h N @.X.V ] >.>.M =.$.+.q S y   C E +.+.4.7.0 0 O.Y A ",
"L 3.W ~ %.{ { h H H I A A R Y Y 1.+.n l / h =.e./ k ) s l M B V w.2.{ z ] u B *.( B ! | ' M &.=.( 4 ) S o f L 1.#.4.4.> e ^ Y l ",
"W 9.` ~ >.3.+.b J I H v H R ) Y } >.H u / h { q.~ h E q l b N B :.=.( l W u B *.O.! ~ ' | N $.X.^ 5 E Z o C L 3.O.5.8.0 w Y Y g ",
"F 9.| G } 6.Y r I Y J b A ] E ) ) } Y 6 ^ p ^ q.[ s ~ 7 k b M K :.=./ l L s I *.O.U ) ' { V $.( / q P l + F ) 3.#.8.y.9 q / ~ M ",
"D 0.| G [ ,.I 0 H Y H e n R R ] ) +.Y p / u ] q.[ k L t b n B I :.=.( l L s V O.( K ) | | M $.X.Y r P l $ G ) 2.O.8.y.- : ~ ] M ",
"W r.} ) +.1.Y q H I H q k L H Y } } K m ~ 0 $.3.] k E u b N B V :.$.( g L s K @.@.T ~ >.%.m { $.Y u J C 2 P ) >.%.e.p.i a =.} M ",
"W 9.) ] [ } H : Y I H e b ] H Y } ) n M Y w 1.6.] k E s S K K I e.=.~ g K u I &.&.! ] <.| z X.*.Y q J D 2 L _ %.@.4.y.: p %.] k ",
"W  .) W H ] n * o.H I h M [ I E ) ) u p K v +.1.+.l ) u n Y Y T u.$.W k J 7 I &.&.R ] >.| z O.$.R q Y L 2 D ) } *.7.y.> u *.] z ",
"Q  .} ) J >.H 9 R M H k k Y H E } [ h q N n U $.} l ) t b ~ ~ U u.$.W z K q V @.*./ { } ] l ( / ) q P P 2 Z ) } #.4.y., a *.~ l ",
"Q  . .Q ] ` 6.h ^ U H b b Y E H } } s h b b ( *.} l ) q n ~ / U w.=.~ s S u V @.-.T { } _ M O.( ] q J D 1 L G | #.4.y.> x O.H S ",
"W ' | W ~ ] 1.p / Y H h h H H l } +.h h B n U %.{ k L u b Y / U q.=.L g S u U @.;.! { } ) M { +.] 5 S S 1 ) L ) #.4.y.> x #.K l ",
"G ) >.L ~ } *.k / ^ K p b Y J j } %.b b U n U 1.] k P s B Y / U =.$.W f S h T -.;.! [ [ _ Z +.$.O.r D D $ G ) ] O.5.y.: p %.L g ",
"G ` <.W ] >.*.b { R H h A R J n ) | S B U m ] 2.] l K s S Y / U 5.$.L s S h Y -.;.T ] } ) S +.$.] s G S + F } ] O.4.y.> 0 { H k ",
"G ' <.) ) 1.$.b O.U B h H K A n } [ K Y B N $.6.] l L s M U ( B 5.+.D s n p U -.;.^ ] } ) Z { #.] q S C $ Q  .) $.4.u., 0 ^ l l ",
"Z ' ,.Q ] %.+.M +.I N h ) Y A n %.~ L ~ B b =.5.] n L s S Y ] N *.} S s A s R ;.;.^ O.} ) M +.+.] u E S 2 L } ~ &.4.p., 0 ! b z ",
"Z  .,.) ~ %.%.m ( B b p ] ) I A } L H Y U b 1.3.) A E k H ~ O.v *.{ S s M h T -.:.^ } } ) S } #.+.l } Z $ S ) ] #.8.p., 0 ! M z ",
"G ,. .) L ] +.b U n v q ) ] H l _ K M H Y B *.6.Y n L r H / ] p *.{ L s S h T -.;.R [ } _ S #.1.#.s P d # S L } #.8.p.> q { H M ",
"z >.>.) E [ 1.h I I v r H b n H ` K h U R n 1.2.] j E h K / I c O.+.L l A r U &.4./ o.[ _ A *.*.+.k ) y # G P ] #.8.p.9 x o.U M ",
"z >.>.L E o.6.e J H v h Y S l A { M p ] #.B +.,.P j J r K +.^ c ( O.Y g A s Y @.;.R [ [ ) S &.%.+.s P y $ P L K 1.8.p.9 e ^ K M ",
"l >.<.L R +.6.e I Y n v ] H l n %.H h { #.M %.3.J j L r Y $.( c ^ O.L f A r T @.;.I [ } _ S 2.=.+.s P l # Z L L #.7.p.9 , ! K k ",
"z <.1.E [ +.6.r Y E A b [ Y l n %.~ M ] O.H +.2.Y j P r K *.( a X.+.K s A h R O.#.Y [ } E D 6.6.+.7 S C O S P Y #.8.p.w i ! K k ",
"g 9.` ` +.+.1.v v Y n v [ E n n } ~ N { +.H ~ %.J r E r K 1.O.c ( #.J s H l o.@.#.B ] [ L M 5.=.1.5 l l $ G E H $.7.a.> 0 ! B k ",
"f %.W ~ +.>.1.r v Y A n o.Y n j | K b | #.n H >.J j J 8 Y *.O.v o.#.P s J A o.O.O.B ] >.L M 6.5.%.s l C # D D n &.y.i.= , ! M c ",
"f %.K K +.+.4.r H I n B O.H l k <.~ k { +.B A } E r J r Y $.X.m O.%.E j L H o...@.N [ >.Q S q.5.} f l f o g C l &.y.y.% i ( B l ",
"t <.` F o.R 6.h R H v n ] A l b %.! M +.#.I b J J r J q K *.X.N O.*.] j P H o.R O.n [ >.) L e.6.*.l s y . y d j #.e.u.- c $.V z ",
"3 >.%.W %.=.1.k I o.I I [ H n E { K l { $./ n K A r E q Y +.O.N O.*.{ g S K +.R #.B +.+._ F e.q.] s g 2 X 8 l b #.4.y.= x *.Y h ",
"f | | { %.` { u H o.H A o.A j A } W N { 1.{ S K A r J r Y #.X.N O.=.] g L Y R ..O.B +.,.} S 6.5.+.g D y o 7 r s ] ;.i.= 0 o.Y K ",
"f ` ' { %.{ #.q A R H b R J v A %.K m $.*./ K K A r H r H #.U b O.1.[ g ) J R / o.H +.,._ S 1.;.*.s D g # 3 s g o.4.y.% , ( Y K ",
"z | %.' { } *.0 H Y n n o.E A J %.S k %.+.U E ) H r J r H ] I v O.*.[ j J A R ..#.I E +.) M 5.6.1.7 d g # d A L O.-.7.% 0 O.K m ",
"z | %.` ] { 1.q I R n A } Y M K %.S b +.+.H ] { J j P r ~ +.^ c X.$.) d j l o.^ -.I [ +.E E 6.e.2.7 t f $ C D ) X.;.u.= , / K B ",
"f ) ` ` [ ] *.p H Y v v +.Y S L %.S M $.+.N ) [ S r E r ) $.X.b O.O.[ s r k o...#.I E } _ J 5.6.2.5 y l $ D L K #.w.a.= , ! B V ",
"S | } ] ] ] #.5 n I b k [ Y K K %.S b } %.b ~ ] A j L q Y #...c X.{ ~ f j k o.O.O.I Y [ _ J *.1.%.5 s Z # Z L J 5.e.p.= , ! M z ",
"S >.+.L ] >.6.e h Y b q Y Y S l %.K b O.#.n ] +.J l L 5 B %.( b O.O.~ f A l ^ O.O.T Y [ E S #.6.%.q l D # S L K =.7.p.= , ! M k ",
"z 9.| ( ] +.2.h I R n v E Y A A ` K S +.+.m $.3.K g L h Y O.{ p / ( L f S u V @.-.U ] } ) H 4.*.+.q ) f $ G G L %.4.p.w 0 U K b ",
"z 9.| W Y ] 1.k I A n r R A b A } K l +.] N $.1.Y n E s H ] / p ( { W f z u U $.;.R { } ) S *.&.%.h E f + D W ~ *.7.i.0 e o.Y S ",
"G | *.` ] +.,.b o.H n e ] J H A } L k %.R H %.6.) n ) s H ~ / b $.$.K f F p ! &.:.^ { } ) S #.%.+.k ) l $ G _ ` *.8.i.9 i ( K M ",
"S ` >.` ] +.#.b +.Y B 0 I Y I r ) ) M %.I N +.5.[ b ) s H / o.B =.%.K f S k ^ ;.:.^ ] } [ S *.&.] k P Z 3 W } ] +.8.p.9 w ~ M M ",
"W ) | W ! $.#.B E R H v l H A b } ` n ] B b / %.] l P s B ~ ( U e.%.L k S k ^ ;.;./ { } ) S { %.O.p G S 2 G ) } +.8.i.> x O.H M ",
"W | { W ~ %.Y q o.I A b h Y H J ) ) h b B h / $.} k Y s H ~ ( Y e.=.E l F h U &.*.^ { } } S { $.O.u L G 3 W Q } #.8.y.> x *.~ l ",
"z *.` W ~ { n * Y B n r b ~ H J ) ) k u K a ] 1.O.k ) s b K Y U 8.1.) A K h V &.&.! { | >.S { $./ q ~ L 2 Q Q %.1.8.y.> i %.Y h ",
"F 9.` ~ { 2.Y q H I Y 0 l E L Y ) %.Y p ~ i { 6.] r E s l B B U 6.1.] S L p T =.X.U ] }  .S { $.~ q L S O W Q 3.+.7.p.> > O.~ k ",
"G <.) S +.1.R r n R A B H Y Y E } | H u ] i { q.) k ) s b m B U 8.=.[ A E k I -.O.V ~ } _ S +.{ { 4 ) g X z L <.+.4.7.> : R I l ",
"W } L k A +.R e e B A v H R R J } <.H k Y N 1.t.#.g L u n B K U :.%.) A ) n I @.@.I ] } Q l %.*.] 4 S f   g S } +.1.7.9 e R H k ",
"W K ) l n E B 4 J H H n R I J A ) | H H ] N 1.e.+.k L t l Y U I *.#.L l L v V -.#.U ) [ L d %.1.*.6 S f X l G ] #.;.5.: 0 H H n ",
"S z Y K Y ] n 4 R H b n [ A J H } ] H K #.p *.q.] l ) u k K ! B #.4.Y l J h I 4.&.R ] [ L l *.*.*.q Z f   f G ] +.1.7.= > b M k ",
"S F W B [ ] n 4 R B 0 b Y A n H +.} n K O.0 *.q.] k ) s k B U n O.1.J D ) n U 4.;./ R [ _ H 1.*.+.q S l   y P ] O.#.4.& 9 H H 6 ",
"W Q ` M o.>.H * 1.E h n A H b j ) >.k Y / q +.2.+.5 S 5 h M H b ( { j C [ S K ;.&.R Y E [ J #.*.+.k D L o Z } | +.*.;.= e @.] u ",
"F W | G +.6.#.r 4.+.A I J R A l P <.q ~ { 0 ] *.{ 6 S 5 k H T b H ~ 7 l ) k n -...R Y E } J O.*.#.u A Q O D  .} 1.4.;.: i $.+.H ",
"{ W 9.K R 6.1.J q.#.H R ] E n h %.2.q K %.: O.t.] l ] u k ~ ^ p p K 8 D } u p @.R O.o._ ,.J o.*.+.u l Q # L >.[ o.;.4.0 e O.] K "
};
